<?xml version="1.0" standalone="no"?>
<!DOCTYPE svg PUBLIC "-//W3C//DTD SVG 20010904//EN"
 "http://www.w3.org/TR/2001/REC-SVG-20010904/DTD/svg10.dtd">
<svg version="1.0" xmlns="http://www.w3.org/2000/svg"
 width="384.000000pt" height="640.000000pt" viewBox="0 0 384.000000 640.000000"
 preserveAspectRatio="xMidYMid meet">

<g transform="translate(0.000000,640.000000) scale(0.100000,-0.100000)"
fill="#000000" stroke="none">
<path d="M1710 5130 c-387 -55 -744 -289 -914 -602 -35 -63 -76 -179 -96 -273
-7 -31 -13 -209 -15 -466 -1 -230 -5 -421 -9 -427 -4 -6 -20 -7 -43 -2 -21 5
-39 7 -41 6 -2 -2 -7 -30 -12 -62 -11 -79 -28 -142 -41 -150 -6 -3 -23 6 -38
20 -15 14 -30 26 -33 26 -3 0 -9 -30 -13 -67 -6 -55 -4 -68 9 -75 9 -5 19 -27
22 -48 6 -39 17 -50 29 -30 3 6 19 10 35 10 16 0 32 5 35 10 9 15 25 2 25 -21
0 -11 7 -22 15 -25 8 -4 15 -11 15 -17 0 -6 8 -19 17 -30 16 -17 19 -54 24
-356 7 -363 7 -369 68 -510 70 -165 219 -346 348 -424 34 -21 94 -51 135 -67
46 -19 83 -42 101 -63 19 -22 30 -28 35 -20 6 9 22 8 67 -6 51 -16 63 -24 83
-57 12 -22 27 -57 34 -79 6 -22 26 -60 45 -84 18 -24 33 -52 33 -62 0 -10 11
-26 25 -35 14 -9 30 -25 36 -36 9 -17 7 -18 -28 -14 -40 5 -89 50 -120 111
-20 40 -71 93 -107 112 -24 12 -30 13 -38 1 -7 -10 -15 -6 -37 20 -24 28 -34
32 -74 32 -26 0 -47 -3 -47 -8 0 -4 12 -19 28 -34 15 -14 45 -44 67 -67 22
-22 44 -41 50 -41 7 0 21 -10 33 -23 18 -19 19 -26 9 -36 -10 -11 -6 -17 17
-35 57 -40 120 -126 156 -212 11 -24 23 -44 27 -44 4 0 25 25 46 55 21 30 42
55 47 55 5 0 14 -18 20 -40 10 -36 9 -72 -5 -228 -3 -31 -1 -52 5 -52 5 0 10
5 10 11 0 15 78 145 96 160 12 10 20 7 42 -14 30 -29 52 -35 52 -14 0 6 -12
39 -25 72 l-25 59 33 34 c18 19 31 41 29 52 -3 18 49 80 66 80 4 0 15 -14 24
-30 20 -35 38 -38 63 -10 10 11 24 20 32 20 7 0 16 7 19 15 3 8 14 17 25 20
10 4 19 11 19 17 0 6 7 19 15 28 14 16 13 19 -10 34 -16 11 -41 16 -63 14 -32
-3 -37 0 -34 17 5 25 39 63 74 81 14 7 36 29 48 49 12 19 49 56 82 82 68 52
91 51 96 -6 4 -42 28 -38 59 9 47 73 57 83 109 106 36 16 84 53 144 111 50 49
95 86 100 85 6 -2 21 3 35 12 30 20 37 5 20 -44 -8 -22 -9 -44 -4 -58 l9 -23
41 33 c28 22 43 29 46 21 6 -18 34 -16 61 3 18 12 26 13 37 4 8 -7 15 -20 15
-29 0 -9 14 -29 31 -45 27 -27 31 -28 45 -14 15 15 15 17 -4 27 -11 6 -24 29
-31 56 -8 34 -16 45 -31 45 -10 0 -22 5 -25 10 -3 6 -19 8 -36 5 -33 -6 -38 8
-9 28 11 8 17 16 14 19 -3 3 5 23 16 43 12 21 19 47 17 57 -3 11 2 43 12 71
35 102 34 108 -18 150 -25 21 -51 41 -56 45 -6 4 -22 21 -37 39 l-26 32 35 68
c19 37 39 70 44 71 37 14 -35 43 -86 35 -45 -7 -45 6 0 61 50 61 65 105 65
186 0 50 5 78 17 97 10 14 20 49 24 77 4 28 16 76 27 106 12 30 23 67 26 81 4
18 14 29 31 33 14 4 25 11 25 16 0 22 30 8 45 -20 9 -16 21 -30 28 -30 7 0 24
-30 38 -67 19 -48 32 -69 45 -70 11 -1 31 -5 47 -9 16 -4 33 -1 42 6 13 11 10
19 -20 60 -19 26 -35 52 -35 57 0 6 -9 18 -20 28 -11 10 -19 28 -18 39 4 30
-34 125 -52 131 -8 3 -26 31 -39 63 -29 67 -53 101 -84 116 -23 12 -37 56 -17
56 8 0 10 109 8 413 l-4 412 -27 88 c-88 286 -299 523 -595 672 -176 88 -333
124 -557 130 -88 2 -189 0 -225 -5z m326 -150 c153 -39 278 -143 350 -291 86
-173 86 -172 52 -167 -23 3 -38 26 -58 93 -40 128 -115 227 -210 274 -55 28
-148 56 -157 47 -2 -2 9 -7 26 -11 16 -3 35 -13 42 -21 6 -8 19 -15 28 -16 9
0 -6 -4 -33 -7 -54 -7 -53 -7 28 -40 24 -10 27 -14 15 -21 -11 -7 -7 -11 17
-16 22 -4 42 -21 68 -55 l37 -50 -51 27 c-28 15 -53 24 -56 21 -4 -3 30 -24
74 -46 44 -22 84 -46 88 -53 13 -20 13 -39 2 -32 -7 4 -8 2 -4 -4 4 -6 13 -9
20 -6 18 7 56 -43 56 -73 l0 -25 -25 30 c-35 41 -146 97 -245 123 -104 27
-272 29 -365 4 -81 -21 -193 -75 -238 -115 -20 -17 -37 -27 -37 -21 0 21 69
87 119 114 165 90 482 91 655 2 33 -17 53 -22 59 -16 15 15 -122 78 -208 96
-88 19 -280 19 -366 1 -99 -21 -191 -67 -243 -121 -25 -26 -44 -50 -44 -54 1
-3 -2 -20 -6 -38 -8 -33 -34 -52 -46 -32 -5 6 -9 3 -13 -10 -8 -31 -27 -25
-27 8 0 36 9 61 22 61 6 0 8 -7 4 -15 -3 -8 0 -15 7 -15 8 0 13 20 15 58 11
206 140 353 364 412 95 25 186 25 284 0z m-701 -195 c0 -23 -43 -34 -55 -14
-14 21 1 40 29 37 18 -2 26 -9 26 -23z m1367 10 c0 -5 -5 -11 -11 -13 -6 -2
-11 4 -11 13 0 9 5 15 11 13 6 -2 11 -8 11 -13z m-142 -39 c0 -3 -4 -8 -10
-11 -5 -3 -10 -1 -10 4 0 6 5 11 10 11 6 0 10 -2 10 -4z m-730 -130 c0 -7 -18
-30 -40 -49 l-39 -36 28 -20 c46 -33 57 -72 36 -127 -15 -40 -68 -93 -106
-106 -5 -2 -13 -23 -18 -48 -7 -36 -9 -39 -10 -15 -1 17 -9 44 -18 60 -9 17
-24 46 -35 65 -17 32 -18 33 -19 10 -2 -43 -7 -64 -21 -98 -11 -28 -11 -34 2
-42 13 -9 13 -11 0 -20 -20 -13 -36 9 -60 88 -23 74 -29 168 -12 199 7 12 24
31 39 43 l28 22 18 -42 19 -42 26 25 c15 13 39 32 55 42 21 14 25 20 16 31
-19 23 -3 42 48 58 61 19 63 19 63 2z m-615 -36 c0 -19 -6 -26 -26 -28 -34 -4
-57 22 -39 44 8 8 25 14 39 12 20 -2 26 -9 26 -28z m1405 20 c0 -5 -4 -10 -10
-10 -5 0 -10 5 -10 10 0 6 5 10 10 10 6 0 10 -4 10 -10z m-148 -121 c-4 -24
-9 -29 -26 -27 -31 4 -34 45 -4 51 13 2 26 5 29 6 3 0 4 -13 1 -30z m188 -30
c0 -5 -4 -9 -10 -9 -5 0 -10 7 -10 16 0 8 5 12 10 9 6 -3 10 -10 10 -16z m234
0 c-3 -5 -10 -7 -15 -3 -5 3 -7 10 -3 15 3 5 10 7 15 3 5 -3 7 -10 3 -15z
m-1729 1 c13 -20 -6 -50 -31 -50 -26 0 -40 20 -30 45 6 17 51 20 61 5z m345
-245 c31 -63 112 -146 176 -178 93 -47 157 -60 273 -55 152 7 205 30 300 126
41 42 64 60 51 41 -67 -94 -164 -156 -279 -180 -79 -16 -213 -6 -286 21 -71
27 -165 90 -198 134 -39 51 -77 133 -83 180 -4 25 -3 71 2 103 l9 58 5 -100
c4 -79 10 -111 30 -150z m-95 155 c-4 -92 -8 -100 -40 -100 -29 0 -35 16 -35
100 0 75 -4 69 67 79 8 1 10 -22 8 -79z m1058 68 c2 -7 2 -50 -1 -95 -4 -71
-7 -83 -22 -83 -46 0 -50 8 -50 101 l0 89 34 0 c19 0 36 -6 39 -12z m-1554
-32 c15 -18 3 -46 -20 -46 -22 0 -34 22 -25 45 7 19 30 19 45 1z m1438 -73
c-3 -10 -5 -2 -5 17 0 19 2 27 5 18 2 -10 2 -26 0 -35z m495 30 c37 -34 13
-83 -41 -83 -23 0 -51 25 -51 46 0 19 36 54 57 54 9 0 25 -7 35 -17z m-546
-28 c36 -55 -7 -165 -86 -224 l-35 -25 35 38 c34 38 34 38 5 18 -41 -28 -132
-54 -141 -40 -4 6 0 16 8 22 27 20 80 61 110 85 29 23 30 28 24 76 -5 47 -4
53 17 63 34 16 45 14 63 -13z m64 -55 c0 -10 -4 -22 -10 -25 -6 -4 -10 7 -10
25 0 18 4 29 10 25 6 -3 10 -15 10 -25z m-749 -22 c6 -13 8 -20 4 -16 -5 4
-14 3 -22 -3 -9 -9 -13 -8 -13 0 0 6 5 11 11 11 6 0 9 7 5 15 -8 23 2 18 15
-7z m-565 -12 c8 -34 -2 -46 -36 -46 -33 0 -50 31 -30 55 20 24 59 19 66 -9z
m1882 2 c7 -7 12 -23 12 -36 0 -20 -4 -23 -32 -20 -38 4 -51 34 -22 55 22 16
27 16 42 1z m-1485 -48 c39 -219 136 -321 357 -375 55 -13 54 -13 -82 -14 -79
-1 -139 -5 -143 -11 -11 -18 -20 -10 -39 36 -11 26 -50 93 -88 150 -61 92 -71
112 -79 171 -9 60 -8 69 8 81 34 24 57 11 66 -38z m1024 24 c-3 -18 3 -24 36
-34 28 -8 64 -36 117 -88 71 -70 86 -93 166 -247 48 -93 98 -184 111 -201 24
-32 30 -68 13 -79 -5 -3 -10 -3 -10 2 0 4 -13 14 -30 21 -25 11 -28 17 -20 32
16 30 12 33 -16 11 -15 -12 -31 -21 -35 -21 -9 0 -51 78 -63 116 -5 15 -2 24
9 28 12 4 21 -7 37 -42 12 -26 20 -53 19 -61 -1 -7 2 -10 8 -6 6 3 11 0 11 -7
0 -7 9 -4 22 9 21 22 21 23 3 43 -10 11 -25 18 -32 16 -7 -3 -13 1 -13 9 0 8
-4 15 -8 15 -10 0 -9 30 1 47 4 6 1 17 -6 25 -21 21 -71 100 -90 141 -25 54
-96 149 -107 142 -6 -4 4 -21 20 -38 16 -18 30 -34 30 -37 0 -3 -23 -18 -50
-34 -46 -28 -77 -62 -44 -49 23 8 42 -15 79 -92 18 -40 41 -75 49 -78 25 -10
19 -31 -19 -66 -19 -17 -34 -39 -34 -49 1 -16 2 -16 6 1 3 13 15 17 48 17 37
0 47 -5 64 -29 12 -16 21 -35 21 -43 0 -20 -21 -38 -44 -38 -19 0 -19 0 0 22
18 20 17 20 -13 -2 -18 -13 -33 -25 -33 -26 0 -7 196 -1 206 7 19 16 50 -5 78
-54 40 -68 110 -277 98 -289 -8 -8 -10 -2 -10 20 1 17 -8 42 -21 57 -11 15
-21 37 -21 49 -1 11 -6 34 -13 50 -10 23 -20 29 -47 32 -19 2 -56 6 -82 9 -27
3 -48 2 -48 -3 0 -5 21 -12 48 -16 26 -3 54 -11 62 -17 13 -9 13 -10 -1 -6 -9
3 -38 0 -65 -5 -27 -6 -42 -13 -34 -15 108 -30 134 -63 50 -63 -44 0 -54 -4
-88 -37 l-37 -38 77 4 c72 3 91 -3 71 -23 -4 -3 -7 -39 -7 -78 -1 -68 -2 -72
-26 -79 -23 -6 -23 -7 -3 -8 12 -1 25 -6 28 -12 5 -7 -4 -8 -28 -4 -32 6 -106
-4 -148 -20 -20 -8 -43 45 -54 121 -9 67 10 104 67 133 24 12 32 19 18 15 -14
-3 -44 -19 -67 -36 -24 -16 -43 -27 -43 -24 0 3 10 22 22 43 l22 38 -32 -29
c-29 -27 -32 -28 -32 -9 0 11 14 37 30 58 35 44 32 55 -7 30 -26 -17 -27 -17
-13 -1 13 17 108 86 150 111 13 8 15 13 5 22 -10 9 -29 1 -81 -34 -40 -27 -61
-37 -49 -24 57 65 179 98 260 71 44 -15 55 -7 22 15 -35 23 -87 29 -122 14
-16 -6 -37 -13 -45 -14 -37 -4 -97 -31 -122 -54 l-28 -25 -1 25 c-1 22 -2 21
-15 -10 -17 -38 -39 -63 -48 -54 -3 4 -6 -4 -6 -17 0 -13 -3 -21 -6 -17 -9 9
-34 146 -34 186 0 58 -19 22 -27 -49 l-7 -65 -12 70 c-8 48 -9 84 -3 114 5 24
8 46 5 48 -2 3 -10 -22 -16 -54 -7 -32 -13 -62 -15 -68 -6 -23 -25 51 -36 138
-22 182 13 303 116 394 l57 52 -25 25 c-24 24 -91 45 -104 33 -3 -4 -8 -23
-10 -44 -6 -53 -13 -54 -13 -2 0 24 -4 58 -9 75 -8 30 -8 30 31 29 35 0 39 -3
35 -21z m-1302 7 c7 -12 -12 -24 -25 -16 -11 7 -4 25 10 25 5 0 11 -4 15 -9z
m952 2 c-4 -3 1 -15 10 -25 16 -17 16 -20 0 -36 -16 -15 -19 -15 -44 10 -22
23 -24 29 -13 42 7 9 22 16 33 16 11 0 17 -3 14 -7z m-492 -53 c28 -11 26 -33
-3 -24 -14 5 -14 4 -3 -4 8 -6 21 -8 29 -4 10 3 13 1 8 -6 -4 -7 -3 -12 3 -12
5 0 12 8 14 18 4 13 5 11 6 -5 1 -26 -7 -28 -46 -11 -77 33 -84 77 -8 48z
m-378 -16 c8 -21 -13 -42 -28 -27 -13 13 -5 43 11 43 6 0 13 -7 17 -16z m1102
-89 c-18 -25 -34 -45 -36 -45 -6 0 6 19 35 58 37 49 38 38 1 -13z m-978 -7
c12 -24 31 -56 43 -73 13 -16 53 -79 91 -139 l68 -109 -7 -101 c-6 -106 1
-139 24 -111 8 10 29 15 61 15 35 0 47 3 43 13 -5 15 -82 11 -101 -5 -9 -7
-13 -7 -13 0 0 18 40 34 70 28 28 -5 47 14 34 35 -3 6 64 8 173 7 l178 -3 1
-34 c1 -19 5 -36 10 -38 9 -3 8 -228 -1 -268 -4 -19 -11 -20 -155 -17 l-151 3
-13 32 c-8 18 -16 66 -19 108 -8 106 -10 109 -66 109 -53 0 -75 -18 -148 -122
-40 -57 -40 -57 -52 -32 -6 14 -11 32 -11 40 0 15 55 114 99 179 12 17 21 39
21 50 0 16 -3 14 -17 -10 -30 -51 -65 -105 -68 -105 -1 0 2 21 7 48 9 52 -2
123 -28 173 -20 39 -30 30 -15 -12 24 -70 8 -70 -25 0 -35 75 -58 96 -29 26 9
-20 14 -43 11 -51 -7 -19 -45 -9 -77 22 -24 23 -128 68 -137 59 -2 -2 23 -13
55 -25 67 -25 94 -47 134 -109 31 -48 43 -125 14 -87 -15 19 -15 19 -15 -5 -1
-75 -23 -81 -77 -21 l-31 36 19 -58 c11 -32 19 -62 17 -68 -2 -5 -23 8 -46 28
-54 46 -66 37 -20 -14 35 -39 78 -146 63 -160 -4 -4 -15 4 -24 18 -22 33 -52
63 -58 57 -2 -3 7 -29 22 -59 19 -39 21 -48 7 -33 -10 11 -29 26 -42 34 -24
13 -24 13 -9 -5 33 -39 32 -46 -2 -28 l-34 17 18 -21 c18 -20 18 -21 0 -30
-10 -5 -30 -12 -45 -16 -34 -8 -36 -22 -5 -32 l22 -8 -25 -7 c-14 -4 -41 -7
-60 -8 l-35 -1 30 -20 c17 -11 50 -30 75 -42 l45 -21 -32 -10 c-41 -12 -41
-21 -3 -37 70 -29 103 -83 85 -139 -7 -25 -30 -28 -43 -6 -4 9 -26 18 -48 22
l-39 6 25 -22 c21 -19 22 -22 5 -16 -99 32 -138 38 -176 28 -52 -14 -50 3 4
27 56 26 92 25 172 -5 38 -15 72 -22 76 -18 12 12 -1 59 -22 82 -25 26 -39 27
-34 1 4 -23 -2 -24 -40 -10 -15 6 -54 12 -87 13 -52 2 -67 -1 -104 -25 -24
-15 -44 -30 -44 -33 0 -4 3 -4 8 -2 43 26 109 47 145 47 46 0 105 -16 122 -33
7 -7 3 -8 -10 -3 -41 15 -124 18 -174 6 -54 -13 -74 -32 -87 -84 l-7 -28 27
18 c44 28 112 35 181 17 87 -22 88 -27 9 -34 -62 -4 -78 -10 -134 -48 -59 -39
-65 -41 -77 -25 -27 37 -40 138 -33 264 1 14 -2 48 -5 75 -5 38 -2 64 15 110
11 33 23 79 25 102 6 51 45 142 73 167 17 15 19 22 11 38 -17 31 2 41 52 28
24 -6 59 -20 77 -31 18 -10 30 -14 27 -9 -10 16 -65 42 -115 55 -28 7 -46 18
-48 28 -2 10 3 17 12 17 9 0 16 6 16 14 0 16 47 126 63 144 9 11 14 9 29 -10
l19 -23 -6 33 c-16 79 50 206 123 240 20 9 43 25 51 35 9 13 21 17 37 13 19
-5 24 -2 24 14 0 38 38 24 61 -22z m176 -2 c199 -179 533 -180 742 -2 l46 40
-49 -52 c-89 -92 -221 -144 -371 -144 -105 -1 -175 15 -260 57 -41 20 -60 26
-45 15 62 -50 148 -82 257 -97 121 -16 184 -12 261 16 67 25 67 17 -1 -15
-196 -89 -503 -26 -597 123 -26 41 -40 93 -25 93 3 0 22 -15 42 -34z m613 14
c-20 -13 -40 -13 -40 0 0 6 12 10 28 10 21 0 24 -2 12 -10z m150 -63 c0 -2
-12 -14 -27 -28 l-28 -24 24 28 c23 25 31 32 31 24z m45 -26 c-8 -16 -38 -60
-66 -97 -50 -65 -50 -74 0 -30 27 23 20 8 -18 -42 -14 -18 -43 -42 -63 -53
-21 -11 -38 -24 -38 -29 0 -5 -12 -9 -27 -9 -16 1 -120 -2 -233 -5 -215 -7
-245 -2 -224 31 9 15 33 19 145 25 74 5 163 12 199 18 109 16 258 104 309 183
29 44 37 48 16 8z m485 25 c0 -3 -4 -8 -10 -11 -5 -3 -10 -1 -10 4 0 6 5 11
10 11 6 0 10 -2 10 -4z m-1940 -66 c0 -24 -24 -32 -47 -14 -17 14 -17 14 0 28
23 18 47 10 47 -14z m1718 16 c-10 -7 -15 -16 -11 -19 3 -4 12 -2 19 4 9 7 15
6 20 -3 14 -21 13 -36 -2 -42 -8 -3 -14 1 -14 10 0 11 -6 14 -16 10 -8 -3 -12
-2 -9 4 3 6 -1 10 -9 10 -23 0 -19 15 7 28 30 15 35 14 15 -2z m318 3 c10 -17
-13 -36 -27 -22 -12 12 -4 33 11 33 5 0 12 -5 16 -11z m-686 -3 c0 -2 -8 -10
-17 -17 -16 -13 -17 -12 -4 4 13 16 21 21 21 13z m453 -115 c31 -57 32 -61 12
-61 -23 0 -79 92 -62 102 19 12 20 11 50 -41z m-349 -261 c-9 -58 -23 -112
-31 -121 -7 -9 -33 -19 -56 -23 -23 -3 -52 -8 -64 -12 -18 -5 -21 -3 -16 15 4
15 13 21 34 21 41 0 50 25 40 106 -5 40 -5 73 0 79 5 5 9 25 9 45 0 19 8 46
17 60 l17 24 12 -29 c11 -28 11 -28 23 26 23 105 26 105 29 9 2 -56 -4 -138
-14 -200z m-1461 193 c4 -3 2 -12 -4 -20 -9 -10 -15 -10 -25 -2 -8 6 -11 15
-8 20 6 11 28 12 37 2z m775 -35 c3 -27 1 -28 -37 -28 -36 0 -41 3 -41 23 0
32 9 38 45 35 24 -2 31 -8 33 -30z m572 -8 c0 -24 -28 -70 -41 -70 -6 0 -14
10 -19 23 -7 18 -3 26 18 44 33 28 42 29 42 3z m-633 -77 c-3 -10 -5 -2 -5 17
0 19 2 27 5 18 2 -10 2 -26 0 -35z m40 0 c-3 -10 -5 -2 -5 17 0 19 2 27 5 18
2 -10 2 -26 0 -35z m484 -20 c8 -9 9 -14 3 -10 -7 4 -17 0 -24 -8 -9 -10 -9
-15 -1 -15 16 0 14 -27 -3 -33 -30 -12 -50 45 -24 71 17 17 33 15 49 -5z m69
-44 c0 -10 -9 -24 -20 -31 -11 -7 -20 -18 -20 -24 0 -15 -36 -24 -48 -12 -6 6
0 20 17 38 14 15 32 35 39 44 16 20 32 12 32 -15z m-123 -106 c-3 -10 -5 -4
-5 12 0 17 2 24 5 18 2 -7 2 -21 0 -30z m-727 -73 c0 -22 -36 19 -44 50 -7 24
-6 24 18 -5 14 -16 26 -37 26 -45z m324 64 c11 -4 16 -19 15 -48 0 -35 -2 -38
-9 -18 -5 12 -21 27 -34 34 -22 9 -28 8 -44 -12 -10 -12 -26 -21 -35 -19 -16
4 -15 7 3 37 16 26 26 32 54 32 19 0 41 -3 50 -6z m446 -119 c0 -98 -1 -105
-20 -105 -19 0 -20 7 -20 98 0 100 3 112 27 112 10 0 13 -24 13 -105z m281 82
c-10 -9 -11 -8 -5 6 3 10 9 15 12 12 3 -3 0 -11 -7 -18z m-94 -43 c28 -8 50
-74 34 -102 -9 -16 -10 -15 -16 3 -17 51 -26 60 -21 23 6 -46 -1 -47 -39 -9
-15 17 -37 31 -49 33 -29 4 -27 30 4 45 27 14 53 16 87 7z m-737 -63 c-1 -13
-97 -165 -106 -168 -5 -2 -17 2 -25 9 -11 10 -14 29 -11 81 4 74 22 88 33 26
4 -19 7 -26 8 -17 4 61 64 121 89 90 6 -9 12 -18 12 -21z m67 4 c6 -14 7 -25
2 -25 -5 0 -9 5 -9 10 0 6 -4 10 -10 10 -5 0 -10 -8 -10 -17 0 -17 -47 -73
-61 -73 -5 0 0 14 9 30 10 17 23 28 30 25 9 -3 11 1 7 16 -6 18 9 49 24 49 3
0 11 -11 18 -25z m83 -73 c0 -7 -5 -10 -11 -7 -17 11 -31 58 -23 85 6 23 7 21
20 -20 8 -25 14 -51 14 -58z m547 10 c13 -7 40 -38 62 -70 49 -72 76 -96 125
-112 36 -12 38 -14 21 -26 -22 -16 -64 -9 -82 14 -7 9 -13 12 -13 7 0 -5 -43
33 -95 85 -52 52 -95 100 -95 107 0 14 47 11 77 -5z m-57 -48 l35 -49 -47 34
c-29 21 -48 42 -48 54 0 29 21 15 60 -39z m-545 6 c10 -11 16 -21 14 -23 -50
-35 -95 -75 -185 -166 -60 -61 -118 -111 -129 -113 -13 -2 -24 6 -33 25 -15
30 -8 67 13 67 7 0 51 37 97 82 80 79 171 148 194 148 6 0 19 -9 29 -20z
m-391 -46 c11 -4 16 -19 16 -52 0 -47 -20 -82 -47 -82 -47 0 -65 88 -24 121
25 21 31 22 55 13z m889 -16 c9 -6 9 -8 -2 -8 -11 0 -11 -3 -1 -16 8 -8 9 -14
4 -12 -5 1 -19 -4 -32 -11 -13 -7 -30 -10 -38 -7 -7 3 -33 -2 -56 -10 -90 -32
-379 -55 -419 -33 -25 13 -16 26 51 76 l45 33 218 -2 c119 -1 223 -6 230 -10z
m132 -28 c10 -11 16 -20 13 -20 -3 0 -13 9 -23 20 -10 11 -16 20 -13 20 3 0
13 -9 23 -20z m725 -21 c0 -17 -20 -29 -20 -11 0 4 -3 18 -7 32 -6 22 -5 24
10 11 9 -7 17 -22 17 -32z m-890 -28 c-8 -5 -67 -23 -130 -41 -63 -18 -122
-36 -130 -41 -30 -17 86 -8 210 16 151 30 167 30 73 2 -75 -23 -110 -44 -57
-34 18 3 45 9 60 12 16 3 -2 -10 -39 -28 -38 -18 -65 -35 -62 -39 4 -4 -19
-14 -51 -24 -88 -25 -179 -16 -287 31 -101 43 -117 58 -55 50 l43 -5 -50 19
-50 18 90 -4 c79 -3 111 1 255 35 174 42 207 48 180 33z m908 -36 c12 -26 17
-145 6 -145 -7 0 -43 43 -44 52 0 4 6 5 14 2 11 -4 12 3 5 38 -11 56 -11 78
-1 78 5 0 14 -11 20 -25z m-1788 -30 c0 -3 -9 -5 -20 -5 -11 0 -20 7 -20 15 0
13 4 14 20 5 11 -6 20 -13 20 -15z m1217 -75 c8 0 11 -5 7 -11 -9 -15 -40 18
-48 51 -5 20 -3 18 11 -7 9 -18 23 -33 30 -33z m368 48 l40 -12 -45 -7 -45 -7
52 1 c28 1 49 0 47 -2 -2 -2 13 -12 33 -21 l38 -17 -55 4 c-54 4 -54 3 -25
-10 29 -14 26 -14 -65 -19 -52 -3 -105 -9 -117 -13 -20 -6 -23 -4 -23 19 0 14
5 26 11 26 5 0 7 -5 3 -12 -4 -6 4 -3 18 8 l26 19 -24 8 c-33 12 -30 22 9 35
44 14 75 14 122 0z m-563 -16 c-31 -24 -112 -54 -112 -42 0 6 6 10 13 10 6 1
35 12 62 25 60 29 67 30 37 7z m-679 -26 c89 -35 212 -66 282 -72 40 -3 103 3
190 19 72 14 132 23 133 22 7 -7 -104 -58 -153 -71 -28 -8 -101 -14 -164 -14
-63 0 -112 -2 -109 -5 11 -11 112 -24 197 -26 89 -1 90 -2 79 -23 -7 -11 -13
-23 -13 -26 -2 -17 -25 -41 -57 -60 -21 -12 -38 -24 -38 -27 0 -2 5 -1 12 3 7
5 8 3 4 -5 -5 -7 -15 -10 -24 -6 -9 3 -13 3 -9 -1 4 -4 1 -14 -6 -22 -10 -13
-9 -15 8 -9 19 6 19 6 2 -6 -10 -7 -28 -20 -39 -29 -21 -18 -24 -18 -73 16
l-30 20 19 -23 c17 -19 18 -21 3 -15 -10 3 -25 20 -33 36 -12 23 -12 28 -2 22
7 -4 2 6 -12 23 -14 17 -37 49 -52 71 -18 26 -50 51 -97 76 -38 20 -75 36 -82
36 -19 1 -103 39 -98 45 3 2 23 -2 44 -10 59 -21 75 -18 30 6 -22 11 -47 27
-55 35 -12 12 -12 16 5 29 29 21 68 18 138 -9z m1392 -46 c10 -11 16 -20 13
-20 -3 0 -13 9 -23 20 -10 11 -16 20 -13 20 3 0 13 -9 23 -20z m-458 -142 c8
-66 -3 -60 -17 10 -6 31 -18 74 -26 95 -22 59 -15 58 13 -3 13 -30 27 -76 30
-102z m348 110 c44 -20 28 -30 -37 -24 -116 12 -142 18 -127 27 20 13 134 11
164 -3z m-665 -28 c-31 -26 -149 -90 -167 -90 -4 0 26 19 67 43 41 23 86 50
100 60 38 27 38 20 0 -13z m-693 -40 c82 -41 112 -62 166 -119 87 -92 130
-200 92 -231 -14 -11 -14 -15 0 -36 18 -28 10 -54 -16 -54 -11 0 -49 27 -84
60 -35 33 -67 60 -70 60 -3 0 22 -33 55 -74 33 -41 60 -76 60 -79 0 -2 -21 0
-47 4 -152 25 -302 -1 -388 -66 -50 -39 -65 -43 -65 -18 0 9 3 14 6 10 3 -3
15 3 26 13 15 14 22 35 24 72 2 29 1 44 -2 33 -12 -48 -36 -105 -45 -105 -13
0 -11 7 6 34 9 13 19 68 26 132 10 108 25 184 35 184 3 0 3 -21 0 -47 l-5 -48
10 40 c5 22 7 50 4 62 -4 16 4 29 32 53 41 34 48 34 131 1 28 -11 52 -17 52
-12 0 5 -15 14 -32 22 -68 27 -108 58 -108 84 0 24 0 24 36 9 62 -26 74 -12
22 24 -89 61 -53 58 79 -8z m883 45 c0 -2 -23 -14 -50 -26 -28 -12 -49 -23
-48 -24 2 -2 22 0 45 4 45 9 81 -2 45 -13 -11 -4 -24 -6 -28 -5 -17 4 -44 -13
-38 -23 4 -5 -4 -9 -17 -8 -47 4 -53 -3 -9 -10 43 -7 42 -7 -22 -8 -37 -1 -69
-6 -73 -11 -3 -5 21 -15 52 -21 133 -25 155 -34 186 -80 21 -30 24 -65 4 -40
-7 8 -21 22 -32 30 -18 14 -19 14 -7 -2 12 -15 6 -16 -75 -16 -78 0 -182 -16
-171 -27 2 -3 20 0 39 5 64 19 155 12 208 -15 50 -25 80 -63 41 -50 -15 5 -20
2 -22 -12 0 -10 -2 -24 -2 -31 -1 -7 -12 -21 -25 -32 l-25 -18 28 -32 c15 -18
26 -34 24 -35 -2 -1 -40 2 -86 8 -108 13 -190 -7 -334 -81 -5 -2 -9 16 -9 40
l-1 43 -10 -50 c-19 -104 -42 -84 -53 47 l-7 89 57 85 c31 46 71 95 88 109 18
14 27 25 21 25 -5 0 -35 -22 -66 -50 l-55 -49 12 37 c7 20 19 38 26 41 8 2 46
34 85 71 73 69 151 109 255 129 24 5 45 9 47 10 1 1 2 -1 2 -4z m-1221 -38 c0
-21 -1 -21 -9 -2 -12 28 -12 37 0 30 6 -3 10 -16 9 -28z m1644 11 l22 -12 -27
-10 c-16 -5 -28 -13 -28 -17 0 -4 29 -19 65 -34 36 -16 65 -32 65 -37 0 -5 -7
-5 -17 0 -10 5 -35 12 -56 15 -33 5 -39 3 -46 -16 -12 -30 -7 -34 38 -42 22
-3 47 -13 58 -21 16 -13 11 -14 -43 -8 l-61 6 -6 -32 c-10 -48 -38 -102 -52
-97 -6 3 -11 -4 -11 -17 1 -30 -38 -29 -42 2 -2 15 2 22 13 22 9 0 14 4 11 8
-3 5 5 40 18 78 16 45 21 73 14 81 -6 8 -2 13 12 18 l22 7 -23 24 c-12 13 -26
24 -31 24 -13 0 -48 -81 -48 -112 0 -33 -40 -66 -52 -44 -12 22 29 209 50 224
20 16 120 9 155 -10z m-593 7 c0 -2 -25 -21 -56 -40 -31 -20 -82 -60 -112 -88
-51 -48 -54 -49 -36 -18 18 32 108 103 170 136 32 16 34 17 34 10z m780 -61
c-6 -14 -14 -22 -20 -19 -13 8 -13 27 1 62 11 28 11 28 20 5 5 -13 4 -33 -1
-48z m-1874 46 c8 0 14 -5 14 -11 0 -12 -55 -3 -80 13 -10 6 -5 8 19 4 18 -3
40 -6 47 -6z m-43 -36 c12 -4 13 -13 6 -44 -6 -27 -4 -64 6 -116 10 -50 11
-81 5 -89 -7 -8 -1 -19 18 -36 25 -22 26 -24 7 -27 -15 -3 -37 14 -82 64 -35
37 -65 66 -67 63 -3 -3 10 -31 30 -63 19 -32 33 -60 31 -62 -7 -7 -50 30 -78
69 -16 22 -29 33 -29 26 0 -8 6 -21 13 -29 10 -12 9 -12 -6 0 -23 17 -47 63
-47 89 0 15 15 28 50 46 28 14 50 30 50 35 0 19 -43 10 -76 -15 -27 -21 -33
-22 -38 -9 -9 22 20 71 52 88 27 15 126 21 155 10z m85 -36 c-2 -3 7 -17 18
-30 25 -28 38 -74 23 -83 -6 -5 -4 -11 7 -19 10 -8 14 -18 9 -25 -10 -17 -48
19 -70 66 -18 37 -13 107 6 101 6 -2 9 -6 7 -10z m197 2 c3 -5 1 -10 -4 -10
-6 0 -11 5 -11 10 0 6 2 10 4 10 3 0 8 -4 11 -10z m1042 4 c-3 -3 -12 -4 -19
-1 -8 3 -5 6 6 6 11 1 17 -2 13 -5z m63 -122 c38 -124 76 -272 70 -265 -5 4
-27 71 -51 148 -23 77 -44 146 -47 154 -3 9 -1 12 6 7 6 -4 16 -23 22 -44z
m87 -21 c8 -13 21 -47 29 -75 66 -256 69 -278 43 -309 -18 -21 -19 -21 -17 -2
3 40 -2 56 -14 49 -8 -5 -9 2 -3 27 9 42 9 49 -5 123 -12 66 -35 116 -25 56 4
-30 2 -27 -14 15 -10 28 -30 76 -45 109 -14 32 -26 60 -26 63 0 11 63 -35 77
-56z m387 -35 c-3 -21 -9 -35 -11 -32 -3 3 -2 21 1 42 4 20 10 34 12 31 3 -3
2 -21 -2 -41z m-1100 -54 c3 -5 8 -28 12 -52 8 -48 -9 -50 -19 -3 -3 16 -9 36
-12 46 -7 17 9 25 19 9z m966 -21 c-5 -11 -15 -23 -21 -27 -6 -3 -3 5 6 20 20
30 30 35 15 7z m-335 -79 c-3 -3 -11 0 -18 7 -9 10 -8 11 6 5 10 -3 15 -9 12
-12z m-1635 -22 c0 -5 -2 -10 -4 -10 -3 0 -8 5 -11 10 -3 6 -1 10 4 10 6 0 11
-4 11 -10z m1567 -82 c29 -11 53 -21 53 -24 0 -2 -20 -1 -45 3 -25 3 -45 3
-45 0 0 -3 26 -22 59 -41 63 -39 110 -82 53 -49 -27 16 -35 16 -64 4 -18 -8
-62 -24 -98 -37 l-65 -23 100 -2 100 -1 -45 -14 c-25 -8 -76 -18 -113 -21
-121 -11 -97 -22 85 -39 37 -3 65 -10 62 -15 -3 -5 -28 -21 -55 -34 -27 -14
-49 -27 -49 -30 0 -2 21 2 47 10 26 8 48 13 50 11 6 -6 -173 -86 -192 -86 -11
0 -27 -5 -35 -10 -19 -12 66 -13 128 -1 23 5 42 5 42 0 0 -26 -225 -24 -275 2
-16 8 -43 24 -60 34 l-30 19 25 -28 c30 -33 69 -55 130 -72 l45 -12 -35 -1
c-32 -2 -33 -3 -15 -14 13 -7 59 -12 124 -11 97 0 102 -1 65 -12 -21 -7 -61
-15 -88 -19 -35 -5 -45 -9 -35 -16 9 -6 0 -9 -31 -9 -63 0 -31 -19 35 -20 45
-1 47 -2 25 -12 l-25 -10 30 -10 c90 -27 243 51 286 147 21 46 26 31 5 -18
-28 -65 -142 -142 -237 -159 l-64 -12 65 -7 c36 -4 68 -5 73 -2 4 2 7 2 7 -2
0 -3 -20 -18 -45 -34 -38 -24 -41 -29 -21 -27 13 0 22 4 20 7 -2 3 19 16 46
29 27 13 68 41 91 64 25 25 37 32 30 19 -15 -29 -117 -112 -161 -130 -47 -21
-241 -21 -269 -1 -12 8 -18 18 -13 23 4 5 2 5 -5 1 -17 -9 -7 -26 35 -61 35
-29 38 -30 141 -30 95 1 111 4 158 28 36 19 61 41 84 77 18 27 34 48 37 45 2
-2 -11 -26 -30 -52 -47 -65 -109 -102 -199 -117 -70 -12 -72 -13 -44 -23 32
-11 31 -12 -35 -31 -33 -10 -34 -10 -7 -11 35 -1 26 -21 -9 -21 -37 0 -91 26
-104 50 -11 20 -10 21 12 10 20 -11 19 -8 -8 21 -37 41 -112 151 -124 184 -5
14 -7 32 -3 40 5 14 8 14 22 2 27 -25 99 -57 123 -56 18 0 15 3 -13 14 -63 23
-151 85 -120 85 5 0 13 -5 16 -10 10 -16 85 -52 85 -40 0 5 -4 10 -10 10 -14
0 -50 75 -50 105 0 15 -11 41 -24 58 -20 26 -76 139 -76 153 0 2 6 4 13 4 6 0
25 7 40 15 26 13 32 12 90 -20 35 -19 83 -36 112 -39 55 -7 56 -7 -55 41 -30
13 -66 31 -79 40 l-23 15 43 28 c79 53 73 71 -17 49 -38 -10 -46 -16 -51 -40
-6 -32 -23 -39 -24 -11 0 12 -2 13 -6 3 -5 -11 -7 -11 -14 0 -6 10 -9 7 -9
-11 0 -20 -2 -22 -10 -10 -33 51 15 97 153 146 51 18 84 33 74 33 -19 1 -162
-45 -182 -57 -6 -4 1 3 15 15 14 13 30 23 35 23 6 0 22 6 36 14 30 15 112 43
149 50 42 7 132 -5 187 -26z m180 0 c-3 -8 -6 -5 -6 6 -1 11 2 17 5 13 3 -3 4
-12 1 -19z m-1022 1 c4 -5 -4 -9 -17 -9 -90 -2 -189 -27 -243 -61 -37 -24 -44
-25 -35 -10 19 37 87 73 160 84 50 7 130 5 135 -4z m55 -9 c18 -12 2 -12 -25
0 -13 6 -15 9 -5 9 8 0 22 -4 30 -9z m-16 -46 c16 -8 46 -14 67 -14 39 0 127
-40 154 -70 15 -16 15 -26 5 -77 -18 -86 -28 -94 -26 -21 0 36 4 64 9 61 4 -2
7 4 7 15 0 22 -99 72 -143 72 -14 0 -59 14 -99 30 -47 20 -60 29 -38 24 19 -3
48 -12 64 -20z m200 16 c15 -5 26 -17 26 -27 0 -11 -3 -14 -8 -7 -4 6 -17 14
-29 18 -13 4 -23 12 -23 17 0 11 3 11 34 -1z m-919 -20 c3 -5 1 -10 -4 -10 -6
0 -11 5 -11 10 0 6 2 10 4 10 3 0 8 -4 11 -10z m696 -26 c35 -14 74 -26 87
-26 25 -1 47 -27 57 -69 5 -22 0 -30 -47 -63 -46 -33 -49 -37 -23 -32 17 4 47
18 68 32 21 14 42 22 47 19 15 -9 12 -38 -5 -61 -13 -17 -14 -16 -5 14 11 40
1 41 -25 2 -24 -36 -156 -139 -194 -150 -23 -7 -20 -9 19 -11 25 -1 61 -1 80
-1 34 2 33 1 -25 -28 -33 -17 -70 -30 -82 -30 -12 0 -24 -4 -27 -9 -4 -5 18
-4 47 3 61 14 165 79 177 110 12 29 12 3 0 -28 -13 -36 -6 -32 28 15 17 22 33
36 36 30 8 -12 -15 -71 -43 -110 -11 -15 -23 -39 -26 -53 -15 -59 -95 -96
-264 -123 l-43 -7 28 -20 c22 -14 39 -17 67 -13 59 9 181 71 226 115 l40 40
-16 -38 c-8 -20 -24 -49 -35 -64 -39 -56 -7 -26 38 35 51 69 53 67 9 -13 -17
-30 -48 -73 -71 -96 -22 -22 -35 -41 -27 -41 7 0 13 5 13 10 0 6 3 8 6 5 4 -5
39 30 142 142 9 10 -10 -55 -25 -88 -16 -34 -103 -128 -138 -149 -11 -7 3 -3
30 8 28 11 61 30 74 42 13 12 22 18 20 12 -26 -56 -46 -85 -70 -101 -16 -10
-29 -22 -29 -26 0 -13 30 -9 56 8 13 9 27 14 31 10 3 -3 1 -6 -6 -6 -8 0 -9
-5 -2 -19 21 -38 -45 -71 -129 -65 -79 6 -95 38 -32 65 23 9 39 23 39 33 0 16
-15 16 -93 1 -11 -3 -29 2 -40 10 -18 13 -17 14 11 15 59 2 75 4 75 12 0 4 7
8 15 8 8 0 15 4 15 8 0 4 -27 4 -59 -2 -81 -13 -131 3 -190 61 -36 35 -38 39
-9 15 53 -44 106 -56 174 -41 30 7 52 14 49 17 -3 3 0 11 5 18 9 9 -6 12 -65
12 -41 0 -91 6 -110 12 -57 19 -130 114 -149 195 l-8 30 22 -28 c35 -45 96
-70 181 -75 50 -3 79 -1 83 7 5 7 -3 11 -21 12 -24 1 -22 2 11 10 64 15 56 22
-16 14 -76 -7 -173 8 -201 33 -18 16 -67 106 -67 124 0 5 15 -10 33 -33 39
-51 72 -76 112 -84 25 -5 21 -1 -22 25 -45 27 -80 63 -108 109 -4 7 7 3 24
-10 26 -19 46 -24 109 -26 l77 -2 -45 13 c-25 7 -65 22 -90 33 l-45 20 50 -4
c50 -4 50 -4 20 10 -17 8 -38 26 -47 39 -24 37 -48 58 -64 58 -18 0 -18 -18 1
-53 16 -31 0 -27 -25 7 -26 35 -29 52 -13 85 15 29 14 35 -2 72 -14 30 -16 42
-7 51 9 9 12 6 12 -14 0 -43 17 -42 70 3 79 66 154 73 271 23z m-463 4 c-2
-15 -10 -23 -23 -23 -13 0 -21 8 -23 23 -3 18 1 22 23 22 22 0 26 -4 23 -22z
m1439 -24 c29 -50 29 -71 -2 -117 -14 -20 -21 -37 -14 -37 6 0 8 -7 5 -15 -3
-8 -9 -22 -12 -30 -4 -10 0 -15 12 -15 15 -1 12 -5 -9 -16 -37 -20 -45 -11
-24 25 l16 27 -32 -3 -32 -4 48 41 c50 44 56 64 32 96 -8 10 -15 29 -15 41 0
12 -4 25 -10 28 -14 9 -12 27 3 23 6 -3 22 -22 34 -44z m-503 -49 c-10 -8 -26
-14 -34 -14 -9 0 -4 6 10 14 33 19 49 19 24 0z m-1060 -67 c22 -35 -27 -74
-59 -48 -18 15 -20 56 -2 64 22 9 50 1 61 -16z m1824 -36 c3 -18 -1 -22 -22
-22 -19 0 -26 5 -26 18 0 39 43 43 48 4z m-1052 -70 c-17 -16 -18 -16 -5 5 7
12 15 20 18 17 3 -2 -3 -12 -13 -22z m-681 -57 c0 -22 -31 -33 -47 -17 -17 17
-1 44 24 40 15 -2 23 -10 23 -23z m1380 -64 c-3 -6 -11 -11 -17 -11 -6 0 -6 6
2 15 14 17 26 13 15 -4z m-440 -77 c9 -15 12 -23 6 -20 -11 7 -35 46 -28 46 3
0 12 -12 22 -26z m-475 -144 c-8 -5 -28 -9 -45 -9 l-30 1 30 8 c17 4 37 8 45
9 13 1 13 0 0 -9z m-144 -61 c4 -8 1 -8 -14 0 -12 6 -24 16 -28 22 -4 8 -1 8
14 0 12 -6 24 -16 28 -22z m584 -223 c0 -30 -64 -35 -80 -6 -6 11 -19 20 -28
20 -10 0 -28 7 -41 16 l-24 17 39 32 39 33 47 -49 c27 -28 48 -56 48 -63z
m140 73 c19 -10 28 -18 20 -19 -12 0 -13 -2 -1 -9 11 -7 10 -11 -7 -20 -18 -9
-26 -6 -57 20 -65 57 -40 73 45 28z m-518 -12 c-23 -7 -36 -7 -44 1 -8 8 1 10
33 10 l44 -1 -33 -10z m450 -25 c-3 -10 -1 -13 7 -8 16 11 65 -39 57 -59 -10
-28 -21 -18 -78 71 -4 6 -1 11 6 11 8 0 12 -7 8 -15z"/>
<path d="M1500 4763 c-38 -39 -40 -43 -13 -24 18 12 46 27 63 32 16 6 30 17
30 25 0 28 -37 13 -80 -33z"/>
<path d="M2426 3884 c-4 -9 -4 -19 -1 -22 2 -3 7 3 11 12 4 9 4 19 1 22 -2 3
-7 -3 -11 -12z"/>
<path d="M2599 3833 c-13 -17 -13 -17 6 -3 11 8 22 16 24 17 2 2 0 3 -6 3 -6
0 -17 -8 -24 -17z"/>
<path d="M2642 3610 c0 -14 2 -19 5 -12 2 6 2 18 0 25 -3 6 -5 1 -5 -13z"/>
<path d="M2860 3468 c0 -9 18 -14 53 -15 47 -1 50 0 33 13 -25 18 -86 19 -86
2z"/>
<path d="M1040 3690 c0 -14 -7 -37 -14 -52 -9 -18 -11 -30 -5 -34 13 -8 13 -8
28 45 9 31 9 47 2 54 -8 8 -11 4 -11 -13z"/>
<path d="M1733 3613 c-15 -5 -18 -53 -4 -53 17 0 24 22 11 30 -9 6 -8 9 6 12
10 2 15 6 9 9 -5 4 -16 4 -22 2z"/>
<path d="M1843 3533 c9 -2 25 -2 35 0 9 3 1 5 -18 5 -19 0 -27 -2 -17 -5z"/>
<path d="M1777 3483 c-10 -9 -9 -61 1 -67 4 -2 8 13 7 35 0 21 0 39 -1 39 0 0
-4 -3 -7 -7z"/>
<path d="M970 3463 l-35 -18 85 -6 c47 -4 98 -12 114 -18 39 -16 41 -10 6 24
-38 37 -117 45 -170 18z"/>
<path d="M1751 3464 c0 -11 3 -14 6 -6 3 7 2 16 -1 19 -3 4 -6 -2 -5 -13z"/>
<path d="M1971 3464 c0 -11 3 -14 6 -6 3 7 2 16 -1 19 -3 4 -6 -2 -5 -13z"/>
<path d="M1970 3408 c0 -8 -12 -25 -27 -39 -14 -13 -23 -18 -19 -11 6 9 2 11
-16 7 -13 -3 -40 -7 -60 -8 -20 -1 -34 -5 -32 -9 9 -14 86 -20 114 -8 27 11
59 64 46 77 -3 3 -6 0 -6 -9z"/>
<path d="M911 3373 c-43 -52 -30 -54 24 -4 34 31 40 41 26 41 -11 0 -33 -17
-50 -37z"/>
<path d="M1240 3390 c8 -5 20 -10 25 -10 6 0 3 5 -5 10 -8 5 -19 10 -25 10 -5
0 -3 -5 5 -10z"/>
<path d="M1790 3396 c0 -2 8 -10 18 -17 15 -13 16 -12 3 4 -13 16 -21 21 -21
13z"/>
<path d="M974 3335 c-18 -14 -17 -14 13 -9 18 4 47 1 64 -5 42 -14 65 3 25 19
-39 14 -79 13 -102 -5z"/>
<path d="M2640 3940 c0 -5 5 -10 11 -10 5 0 7 5 4 10 -3 6 -8 10 -11 10 -2 0
-4 -4 -4 -10z"/>
<path d="M1468 3225 c-3 -14 -1 -25 3 -25 5 0 9 11 9 25 0 14 -2 25 -4 25 -2
0 -6 -11 -8 -25z"/>
<path d="M2128 3173 c6 -2 18 -2 25 0 6 3 1 5 -13 5 -14 0 -19 -2 -12 -5z"/>
<path d="M2018 3133 c6 -2 18 -2 25 0 6 3 1 5 -13 5 -14 0 -19 -2 -12 -5z"/>
<path d="M1390 2665 c-17 -20 9 -21 36 0 19 14 19 14 -2 15 -12 0 -27 -7 -34
-15z"/>
<path d="M2541 2624 c0 -11 3 -14 6 -6 3 7 2 16 -1 19 -3 4 -6 -2 -5 -13z"/>
<path d="M2410 2260 c20 -13 33 -13 25 0 -3 6 -14 10 -23 10 -15 0 -15 -2 -2
-10z"/>
<path d="M1690 2170 c0 -5 10 -10 23 -10 18 0 19 2 7 10 -19 13 -30 13 -30 0z"/>
<path d="M1389 2027 c5 -5 19 -7 32 -5 20 3 19 5 -9 9 -20 3 -29 2 -23 -4z"/>
<path d="M1694 2020 c-6 -6 -33 -19 -60 -30 -32 -13 -41 -19 -26 -20 20 0 102
44 102 55 0 8 -5 6 -16 -5z"/>
<path d="M1370 1874 c0 -8 71 -36 77 -30 3 2 -9 12 -26 20 -31 16 -51 20 -51
10z"/>
<path d="M1615 1809 c-35 -13 -43 -18 -25 -18 14 0 41 8 60 19 43 23 31 23
-35 -1z"/>
<path d="M1478 1793 c7 -3 16 -2 19 1 4 3 -2 6 -13 5 -11 0 -14 -3 -6 -6z"/>
<path d="M1814 1667 c-11 -12 -35 -42 -54 -67 -30 -39 -31 -43 -10 -29 14 9
40 37 59 63 35 49 39 72 5 33z"/>
</g>
</svg>
