<?xml version="1.0" standalone="no"?>
<!DOCTYPE svg PUBLIC "-//W3C//DTD SVG 20010904//EN"
 "http://www.w3.org/TR/2001/REC-SVG-20010904/DTD/svg10.dtd">
<svg version="1.0" xmlns="http://www.w3.org/2000/svg"
 width="384.000000pt" height="640.000000pt" viewBox="0 0 384.000000 640.000000"
 preserveAspectRatio="xMidYMid meet">

<g transform="translate(0.000000,640.000000) scale(0.100000,-0.100000)"
fill="#000000" stroke="none">
<path d="M1820 6041 c-77 -25 -190 -94 -176 -108 3 -3 -2 -16 -11 -27 -18 -21
-18 -21 4 -2 13 10 20 22 18 26 -8 13 22 31 41 24 15 -5 16 -4 4 5 -12 8 -5
14 35 31 28 12 59 25 70 30 11 5 52 8 92 7 56 -1 69 -5 61 -14 -10 -13 1 -22
36 -27 24 -3 32 -16 16 -26 -10 -7 -11 -10 -2 -10 6 0 12 -9 12 -21 0 -13 8
-23 21 -26 12 -4 18 -11 15 -20 -5 -11 2 -12 29 -7 28 5 36 3 41 -11 6 -14 15
-16 46 -11 31 5 38 4 31 -6 -4 -7 -8 -16 -8 -20 0 -11 -6 -11 -39 2 -25 9 -32
8 -51 -10 -12 -11 -25 -17 -28 -13 -4 3 -7 1 -7 -5 0 -6 5 -14 10 -17 6 -3 10
-12 10 -18 0 -8 -2 -9 -8 -1 -4 6 -29 11 -55 11 -52 0 -83 17 -57 33 13 8 12
13 -7 31 -18 19 -24 20 -37 9 -22 -17 -20 -42 4 -67 20 -22 20 -22 0 -28 -22
-7 -43 2 -35 15 3 5 -7 23 -22 39 -29 32 -70 41 -107 26 -30 -13 -14 18 17 33
26 12 26 14 11 37 -19 29 -50 32 -82 9 -22 -15 -30 -44 -12 -44 6 0 10 -4 10
-10 0 -5 -7 -10 -15 -10 -8 0 -15 -5 -15 -11 0 -5 -5 -7 -11 -4 -6 4 -21 -3
-35 -16 -13 -12 -24 -17 -24 -10 0 7 -5 9 -11 6 -6 -4 -8 -10 -5 -13 3 -3 -3
-12 -15 -20 -23 -16 -22 -51 1 -62 8 -4 30 -14 47 -23 18 -9 32 -12 30 -8 -1
4 11 23 26 42 15 19 33 42 40 52 8 12 19 16 30 11 14 -5 15 -9 6 -20 -6 -8 -8
-14 -4 -14 4 0 2 -6 -4 -14 -17 -20 -3 -46 25 -46 13 0 24 -4 24 -10 0 -5 -13
-7 -31 -3 -44 8 -54 -13 -23 -50 13 -16 24 -33 24 -39 0 -5 12 -7 28 -4 20 5
36 0 62 -19 18 -14 39 -25 46 -25 6 0 17 -7 24 -15 17 -20 40 -19 55 2 12 17
14 17 35 -2 12 -11 25 -19 29 -18 3 1 8 -1 11 -4 3 -4 -1 -3 -7 1 -9 5 -13 0
-13 -14 0 -16 4 -20 16 -16 9 3 18 6 20 6 2 0 4 9 4 19 0 10 7 21 15 25 8 3
16 16 16 28 1 19 3 18 9 -7 4 -16 8 -38 9 -48 1 -23 -59 -79 -77 -72 -8 3 -23
-2 -35 -10 -25 -17 -41 -20 -32 -5 3 6 3 10 -2 11 -4 0 -16 2 -25 4 -10 2 -21
-1 -24 -7 -4 -6 -10 -5 -15 3 -6 10 -9 11 -9 2 0 -7 -7 -13 -15 -13 -8 0 -15
5 -15 11 0 5 -5 7 -10 4 -6 -4 -17 -2 -24 4 -11 9 -15 7 -19 -10 -3 -12 -10
-18 -16 -14 -6 3 -19 -1 -28 -10 -9 -9 -24 -14 -34 -12 -10 3 -16 0 -13 -7 2
-6 -9 -17 -26 -24 -16 -8 -30 -17 -30 -22 0 -4 34 -24 76 -45 66 -33 88 -38
165 -43 182 -10 332 60 421 196 22 34 43 61 45 58 7 -7 -65 -115 -95 -143 -35
-33 -128 -87 -177 -103 -221 -73 -492 32 -587 228 -29 60 -33 76 -33 154 0 72
-3 88 -15 88 -9 0 -66 -28 -128 -63 -449 -250 -774 -681 -879 -1168 -14 -67
-18 -129 -18 -314 0 -252 11 -329 76 -535 62 -193 196 -427 329 -573 96 -105
325 -275 488 -362 39 -22 72 -43 72 -48 0 -5 7 -7 15 -3 23 9 18 -21 -7 -38
-22 -16 -22 -16 -2 -34 10 -10 28 -23 38 -29 17 -9 11 -13 -39 -28 -33 -9 -85
-30 -117 -46 -31 -16 -70 -29 -86 -29 -58 0 -132 -30 -172 -70 -29 -29 -41
-52 -51 -97 -7 -32 -25 -76 -40 -98 -46 -68 -73 -131 -65 -151 6 -15 15 -3 43
56 19 41 40 82 48 90 7 8 19 41 26 74 7 32 22 73 34 90 28 42 92 75 157 83 29
3 71 16 93 28 82 46 163 68 236 63 54 -4 66 -3 62 8 -4 11 0 12 18 6 13 -5 34
-28 47 -52 20 -35 21 -42 8 -37 -10 4 -15 3 -11 -3 3 -6 13 -10 21 -10 8 0 14
-4 14 -10 0 -14 -8 -13 -44 9 -37 22 -135 55 -143 48 -3 -3 18 -17 46 -31 48
-25 70 -43 35 -29 -15 5 -15 3 -1 -23 8 -16 27 -40 41 -53 36 -34 33 -51 -9
-51 -19 0 -65 -12 -102 -26 -68 -25 -68 -25 -139 -9 -39 9 -82 15 -94 13 l-23
-3 27 -32 c32 -38 44 -96 26 -118 -17 -20 -30 -19 -30 2 0 9 -16 -7 -35 -37
-35 -56 -46 -97 -22 -85 6 4 4 0 -5 -8 -12 -9 -14 -17 -7 -24 33 -33 -93 -10
-142 26 -21 16 -29 18 -29 8 0 -8 25 -27 55 -43 53 -28 54 -29 28 -35 -25 -5
-22 -7 35 -29 34 -12 61 -28 59 -34 -2 -6 -27 -11 -58 -11 -65 0 -166 45 -179
79 -4 12 -16 28 -26 36 -16 14 -17 12 -11 -24 11 -69 -28 -113 -101 -118 -16
0 -8 -3 18 -7 38 -5 45 -10 46 -29 2 -40 12 -35 19 10 7 43 43 102 51 83 15
-36 47 -77 52 -68 5 7 25 0 57 -18 44 -25 47 -29 23 -29 -34 0 -59 10 -53 20
3 5 0 12 -6 16 -8 4 -9 3 -5 -4 4 -7 1 -12 -6 -12 -7 -1 -2 -10 12 -22 l25
-21 -25 8 c-23 7 -24 7 -10 -10 14 -17 14 -17 -9 -6 -17 10 -20 15 -11 21 9 6
7 11 -9 19 -12 7 -18 17 -15 23 5 7 2 8 -6 3 -10 -6 -12 -4 -7 8 4 11 2 14 -9
10 -10 -4 -12 -12 -7 -27 4 -11 7 -31 8 -42 0 -12 5 -20 11 -17 5 2 18 -5 28
-16 17 -19 17 -20 -26 -26 -23 -3 -72 -7 -106 -8 l-64 -2 -34 65 c-57 111 -55
163 12 243 39 46 32 131 -12 147 -16 6 -21 15 -17 28 7 28 -30 58 -87 72 -48
12 -48 12 -29 31 45 45 1 102 -64 85 -42 -10 -52 -40 -27 -80 l20 -34 -35 -6
c-45 -9 -84 -44 -64 -58 12 -8 12 -10 0 -15 -59 -23 -70 -110 -22 -165 81 -94
82 -181 1 -275 -15 -17 -36 -45 -45 -61 -15 -25 -29 -32 -79 -42 -75 -16 -99
-27 -92 -45 3 -8 -21 -26 -70 -51 -41 -21 -73 -42 -71 -48 2 -5 46 -24 98 -41
92 -31 94 -33 107 -71 7 -21 19 -44 27 -50 12 -9 6 -20 -38 -65 -28 -30 -65
-64 -82 -76 l-30 -23 299 7 c216 4 297 3 292 -5 -4 -7 -37 -9 -99 -5 -50 3
-89 2 -85 -2 5 -5 86 -12 180 -16 106 -5 194 -14 228 -24 30 -8 120 -29 198
-45 140 -29 246 -68 350 -128 42 -24 54 -44 14 -23 -12 6 -29 11 -39 10 -14 0
-12 -2 6 -10 13 -5 22 -12 19 -15 -8 -7 -58 18 -53 26 3 4 -4 10 -15 13 -12 3
-18 1 -14 -5 4 -7 -2 -7 -17 -3 -73 23 -94 33 -94 45 0 7 -6 15 -12 17 -7 3
-13 1 -13 -4 0 -4 -32 -6 -71 -5 -83 4 -146 -5 -132 -19 18 -18 125 -50 199
-59 95 -12 317 -101 342 -137 38 -55 72 -90 104 -106 121 -59 149 -69 183 -64
46 8 243 98 323 148 113 71 443 219 489 219 29 0 1 17 -50 29 -42 10 -59 9
-123 -9 -83 -23 -94 -24 -94 -11 0 5 47 27 105 50 82 32 118 41 167 41 43 0
81 8 122 25 95 39 136 44 466 55 173 6 318 15 322 19 5 4 -9 13 -30 20 -39 15
-142 96 -142 113 0 6 11 7 24 4 21 -5 23 -3 19 15 -3 12 -11 18 -19 15 -18 -7
-17 -2 0 32 14 27 81 72 107 72 8 0 38 11 68 25 l53 25 -69 36 c-38 19 -85 48
-104 65 -31 27 -84 49 -117 49 -27 0 -67 42 -79 83 -18 59 -16 90 6 119 24 30
27 44 18 89 -8 42 -30 64 -71 75 -24 6 -26 8 -12 16 9 5 16 20 16 33 0 18 -7
26 -27 32 -28 7 -38 7 -79 -2 -44 -10 -40 -61 4 -68 20 -3 18 -4 -11 -6 -59
-2 -87 -36 -87 -105 0 -30 5 -58 11 -62 12 -7 6 -124 -6 -144 -12 -20 -206 -3
-228 19 -6 6 -4 16 7 27 15 15 15 18 2 33 -9 10 -13 26 -10 38 7 26 -27 51
-82 60 -39 6 -112 38 -149 66 -18 14 -19 17 -3 34 22 25 79 139 93 188 l12 40
90 -4 c107 -4 179 14 241 59 70 50 101 119 124 268 12 81 2 104 -49 117 -20 5
-24 11 -20 28 41 179 100 514 93 526 -3 5 -1 11 5 13 15 5 28 79 18 104 -4 10
-5 51 -2 89 4 58 3 68 -8 58 -27 -26 -37 -15 -23 25 21 58 18 138 -6 162 -23
23 -39 25 -73 9 -31 -14 -45 -45 -53 -113 -9 -75 4 -96 61 -96 l45 0 0 -40 c0
-22 -5 -40 -11 -40 -5 0 -8 -4 -5 -9 9 -14 -16 -29 -54 -33 -29 -2 -35 0 -34
17 0 11 -6 24 -13 28 -8 5 -13 30 -13 70 0 40 -3 57 -9 48 -7 -10 -14 2 -27
43 -13 41 -22 55 -32 51 -11 -4 -13 1 -9 22 5 27 4 27 -10 8 -15 -19 -15 -19
-9 6 3 16 -1 35 -11 50 -14 20 -12 20 17 -6 18 -16 41 -43 51 -60 11 -16 19
-25 19 -19 0 14 -41 75 -69 103 -15 15 -21 34 -21 66 0 25 2 45 4 45 2 0 23
-7 47 -16 26 -9 72 -15 112 -15 61 1 70 -1 92 -25 30 -33 33 -17 4 20 -18 22
-28 26 -77 26 l-57 1 34 14 c72 32 121 -13 141 -129 7 -42 10 -102 7 -133 -4
-35 -3 -50 2 -38 14 32 70 272 87 370 21 123 30 463 15 563 -51 320 -212 644
-439 883 -145 152 -311 279 -501 381 -28 16 -51 35 -51 43 0 31 -45 108 -93
161 -92 101 -195 142 -372 149 -60 3 -121 1 -135 -4z m247 -77 c-2 -2 -12 -1
-22 3 -18 6 -18 7 1 13 17 7 33 -5 21 -16z m130 -34 c11 -16 10 -18 -1 -14
-15 6 -30 34 -18 34 4 0 13 -9 19 -20z m-91 -237 c-7 -7 -26 7 -26 19 0 6 6 6
15 -2 9 -7 13 -15 11 -17z m-856 -143 c0 -5 -7 -10 -16 -10 -8 0 -12 5 -9 10
3 6 10 10 16 10 5 0 9 -4 9 -10z m1153 -10 c-3 -12 -8 -19 -11 -16 -5 6 5 36
12 36 2 0 2 -9 -1 -20z m117 6 c0 -11 -19 -15 -25 -6 -3 5 1 10 9 10 9 0 16
-2 16 -4z m90 -66 c0 -5 -4 -10 -10 -10 -5 0 -10 5 -10 10 0 6 5 10 10 10 6 0
10 -4 10 -10z m-1298 -45 c0 -5 -5 -11 -11 -13 -6 -2 -11 4 -11 13 0 9 5 15
11 13 6 -2 11 -8 11 -13z m838 -15 c0 -5 -5 -10 -11 -10 -5 0 -7 5 -4 10 3 6
8 10 11 10 2 0 4 -4 4 -10z m-230 -40 c0 -5 -2 -10 -4 -10 -3 0 -8 5 -11 10
-3 6 -1 10 4 10 6 0 11 -4 11 -10z m30 0 c0 -5 -4 -10 -10 -10 -5 0 -10 5 -10
10 0 6 5 10 10 10 6 0 10 -4 10 -10z m501 -43 c-17 -17 -34 12 -19 31 10 11
13 10 21 -3 6 -11 5 -21 -2 -28z m130 10 c-13 -13 -26 -3 -16 12 3 6 11 8 17
5 6 -4 6 -10 -1 -17z m-1425 -110 c8 -4 14 -15 14 -22 0 -8 9 -15 20 -15 32 0
23 -15 -17 -30 -43 -16 -60 -15 -80 6 -8 8 -20 14 -26 14 -12 0 25 25 54 36 9
3 15 16 13 32 -1 16 0 19 3 7 3 -11 11 -24 19 -28z m1581 4 c-7 -2 -20 -10
-29 -19 -16 -14 -18 -13 -18 1 0 8 -6 17 -12 20 -9 3 -7 10 7 24 20 20 20 20
42 -1 14 -14 18 -22 10 -25z m-1164 -32 c-17 -17 -37 -1 -22 17 8 10 15 12 23
4 7 -7 7 -13 -1 -21z m647 -9 c0 -5 -5 -10 -11 -10 -5 0 -7 5 -4 10 3 6 8 10
11 10 2 0 4 -4 4 -10z m157 -22 c-3 -8 -6 -5 -6 6 -1 11 2 17 5 13 3 -3 4 -12
1 -19z m-847 -47 c0 -6 -4 -13 -10 -16 -5 -3 -10 1 -10 9 0 9 5 16 10 16 6 0
10 -4 10 -9z m206 -27 c-15 -32 -26 -30 -22 4 5 34 3 32 20 26 11 -4 11 -10 2
-30z m464 6 c0 -5 -5 -10 -11 -10 -5 0 -7 5 -4 10 3 6 8 10 11 10 2 0 4 -4 4
-10z m440 0 c0 -5 -2 -10 -4 -10 -3 0 -8 5 -11 10 -3 6 -1 10 4 10 6 0 11 -4
11 -10z m380 -30 c0 -11 -7 -20 -15 -20 -8 0 -15 9 -15 20 0 11 7 20 15 20 8
0 15 -9 15 -20z m-1970 -10 c0 -5 -7 -10 -15 -10 -8 0 -15 5 -15 10 0 6 7 10
15 10 8 0 15 -4 15 -10z m996 -1 c3 -6 2 -15 -2 -19 -12 -12 -38 5 -30 19 9
14 23 14 32 0z m-1256 -26 c0 -1 -9 -7 -20 -13 -15 -8 -20 -8 -20 3 0 7 9 13
20 13 11 0 20 -1 20 -3z m685 -44 c0 -3 8 -14 19 -24 18 -18 18 -19 -3 -27
-11 -4 -21 -14 -21 -23 0 -22 -15 -18 -33 8 -19 29 -19 77 -1 77 8 0 14 8 14
18 1 15 2 15 13 -3 6 -11 12 -23 12 -26z m1495 11 c0 -5 -2 -10 -4 -10 -3 0
-8 5 -11 10 -3 6 -1 10 4 10 6 0 11 -4 11 -10z m-2190 -10 c0 -5 -4 -10 -10
-10 -5 0 -10 5 -10 10 0 6 5 10 10 10 6 0 10 -4 10 -10z m1030 -40 c0 -5 -4
-10 -10 -10 -5 0 -10 5 -10 10 0 6 5 10 10 10 6 0 10 -4 10 -10z m615 -64
c168 -55 321 -168 383 -285 43 -79 42 -101 -1 -101 -42 0 -67 -26 -103 -105
-15 -33 -28 -62 -30 -64 -2 -2 -48 29 -102 68 -114 82 -248 148 -377 186 -76
23 -115 28 -252 32 -174 6 -234 -2 -285 -39 -47 -33 -45 -12 8 64 92 135 241
231 415 268 81 17 255 5 344 -24z m-1264 -69 c-13 -13 -26 -3 -16 12 3 6 11 8
17 5 6 -4 6 -10 -1 -17z m369 -2 c0 -8 -4 -15 -9 -15 -13 0 -22 16 -14 24 11
11 23 6 23 -9z m-857 -105 c7 0 13 -11 13 -24 2 -29 -24 -39 -51 -20 -12 9
-14 14 -6 14 8 0 11 6 7 17 -4 9 -1 20 6 24 7 5 15 4 16 -1 2 -6 9 -10 15 -10z
m2497 -20 c0 -5 -4 -10 -10 -10 -5 0 -10 5 -10 10 0 6 5 10 10 10 6 0 10 -4
10 -10z m-1175 -105 c120 -17 190 -35 292 -75 79 -30 241 -128 284 -171 26
-26 37 -68 13 -48 -17 14 -18 23 -2 13 7 -4 8 -3 4 5 -4 6 -11 9 -16 6 -5 -3
-26 6 -47 21 -46 32 -168 93 -243 122 -244 95 -605 89 -707 -13 -33 -33 -45
-86 -23 -100 6 -3 10 -11 10 -17 0 -6 -6 -5 -16 3 -13 10 -15 24 -11 61 20
170 176 235 462 193z m-520 -34 c-14 -14 -17 -14 -25 -1 -13 21 8 44 27 28 12
-10 12 -14 -2 -27z m-545 -49 c1 -34 47 -72 97 -79 41 -6 44 -8 23 -14 -14 -4
-38 -7 -53 -8 -32 -1 -76 -45 -77 -76 -1 -12 -6 -5 -15 19 -17 47 -23 52 -89
61 l-51 8 44 7 c49 8 101 54 101 91 0 24 20 15 20 -9z m1143 -3 c137 -20 319
-93 431 -173 59 -42 112 -92 76 -71 -8 4 -35 23 -60 40 -180 129 -373 193
-615 205 l-150 7 123 1 c68 1 156 -3 195 -9z m1085 2 c21 -13 10 -46 -16 -49
-27 -4 -40 22 -22 43 14 17 20 18 38 6z m-1415 -8 c-7 -2 -19 -2 -25 0 -7 3
-2 5 12 5 14 0 19 -2 13 -5z m-385 -15 c-6 -18 -28 -21 -28 -4 0 9 7 16 16 16
9 0 14 -5 12 -12z m1518 -63 c14 -40 14 -40 -19 -70 l-32 -29 -3 24 c-2 14
-15 34 -29 46 -31 25 -27 65 9 81 32 15 57 -3 74 -52z m12 30 c-3 -3 -9 2 -12
12 -6 14 -5 15 5 6 7 -7 10 -15 7 -18z m65 -78 c21 -44 32 -246 18 -320 -6
-33 -34 -105 -62 -160 -57 -113 -75 -139 -63 -92 8 33 27 70 68 129 14 21 26
44 26 50 0 6 -9 -4 -21 -23 -15 -25 -23 -31 -32 -22 -8 8 -8 19 0 40 6 16 7
34 4 40 -4 6 -13 -5 -20 -25 -7 -19 -15 -34 -17 -31 -3 2 0 17 7 33 26 70 34
305 9 264 -7 -12 -12 -11 -29 4 -12 11 -21 25 -21 31 0 27 94 34 122 8 28 -25
23 4 -12 70 -16 31 -30 60 -30 63 0 15 39 -29 53 -59z m-1296 36 c-8 -10 -26
-43 -38 -73 -21 -48 -23 -72 -23 -190 0 -149 12 -201 73 -301 35 -56 36 -59
18 -59 -35 0 -98 110 -122 212 -38 162 -1 374 72 417 28 16 38 13 20 -6z
m-977 -33 c20 0 10 -38 -14 -54 -29 -18 -46 -14 -64 15 -11 17 -10 24 10 47
22 26 23 27 40 10 10 -10 23 -18 28 -18z m1415 25 l40 -14 -40 6 c-22 3 -49 9
-60 14 l-20 8 20 0 c11 0 38 -7 60 -14z m-165 -51 c37 -25 50 -45 50 -76 0
-40 -60 -102 -125 -129 -31 -13 -57 -31 -61 -41 -10 -32 -29 -14 -29 28 -1 21
-6 49 -13 61 -12 21 -7 72 9 105 10 18 104 68 129 68 8 0 27 -7 40 -16z
m-1385 -4 c3 -5 1 -10 -4 -10 -6 0 -11 5 -11 10 0 6 2 10 4 10 3 0 8 -4 11
-10z m1163 -11 c-2 -6 -8 -10 -13 -10 -5 0 -11 4 -13 10 -2 6 4 11 13 11 9 0
15 -5 13 -11z m1046 -37 c-6 -8 -44 20 -39 28 3 5 14 2 24 -8 10 -9 17 -18 15
-20z m5 -12 c14 0 17 -6 13 -25 -2 -14 3 -45 12 -69 9 -24 14 -55 11 -67 -3
-13 -2 -46 4 -72 8 -45 7 -48 -12 -45 -13 2 -23 13 -27 28 -7 31 -41 38 -76
16 -39 -26 -31 -52 26 -78 27 -12 44 -25 38 -29 -17 -11 -1 -39 22 -39 11 0
23 7 26 15 7 17 44 21 44 4 0 -6 -15 -26 -34 -45 -44 -44 -83 -45 -128 -5
l-33 29 1 134 c0 131 1 134 32 186 18 29 32 58 32 64 0 5 7 7 16 4 9 -3 24 -6
33 -6z m-1439 -14 c0 -8 6 -17 13 -19 8 -4 9 -8 1 -14 -6 -4 -16 -17 -22 -28
-11 -20 -11 -20 -12 2 0 12 -6 24 -12 27 -10 5 -10 7 0 12 6 3 12 12 12 20 0
8 5 14 10 14 6 0 10 -6 10 -14z m-580 -52 c0 -17 -22 -14 -28 4 -2 7 3 12 12
12 9 0 16 -7 16 -16z m2119 -22 c0 -24 -1 -25 -9 -7 -12 28 -12 47 0 40 6 -3
10 -18 9 -33z m319 -33 c-2 -6 -8 -10 -13 -10 -5 0 -11 4 -13 10 -2 6 4 11 13
11 9 0 15 -5 13 -11z m-2478 -59 c0 -5 11 -10 25 -10 14 0 25 -4 25 -10 0 -5
-6 -10 -14 -10 -7 0 -20 -10 -28 -22 l-15 -22 -27 28 c-16 15 -27 29 -25 30
10 8 45 25 52 26 4 0 7 -4 7 -10z m2134 -15 c3 -8 1 -15 -3 -15 -5 0 -11 7
-15 15 -3 8 -1 15 3 15 5 0 11 -7 15 -15z m-1794 -35 c0 -5 -4 -10 -10 -10 -5
0 -10 5 -10 10 0 6 5 10 10 10 6 0 10 -4 10 -10z m1208 -9 c18 -11 11 -45 -10
-49 -17 -3 -34 30 -23 48 7 12 16 12 33 1z m-441 -33 c-3 -7 -5 -2 -5 12 0 14
2 19 5 13 2 -7 2 -19 0 -25z m907 -13 c-4 -8 -10 -12 -15 -9 -11 6 -2 24 11
24 5 0 7 -7 4 -15z m-263 -58 c-10 -9 -11 -8 -5 6 3 10 9 15 12 12 3 -3 0 -11
-7 -18z m-1582 -23 c-9 -11 -7 -14 10 -14 11 0 21 -5 21 -11 0 -6 -9 -8 -20
-4 -14 4 -20 2 -18 -6 2 -7 -10 -16 -27 -20 -16 -4 -22 -7 -12 -8 10 0 16 -5
12 -11 -3 -5 -12 -7 -20 -4 -19 8 -30 63 -15 77 8 9 9 7 4 -8 -7 -17 -3 -16
25 8 33 27 63 28 40 1z m206 16 c-3 -5 -10 -10 -16 -10 -5 0 -9 5 -9 10 0 6 7
10 16 10 8 0 12 -4 9 -10z m1798 -25 c-3 -9 -8 -14 -10 -11 -3 3 -2 9 2 15 9
16 15 13 8 -4z m-2193 -25 c0 -5 -4 -10 -10 -10 -5 0 -10 5 -10 10 0 6 5 10
10 10 6 0 10 -4 10 -10z m2453 -32 c28 -14 19 -28 -19 -28 -28 0 -35 -3 -30
-15 7 -19 7 -19 -50 6 -64 27 -79 40 -62 50 15 10 135 0 161 -13z m-554 -10
c-7 -13 -39 -49 -72 -81 -178 -172 -513 -219 -741 -105 -32 16 -60 27 -63 24
-3 -3 9 -18 27 -33 214 -183 408 -197 751 -53 64 27 158 63 208 80 80 27 96
30 126 20 50 -17 54 -32 6 -24 -41 7 -146 -19 -158 -39 -4 -7 1 -8 13 -3 36
14 124 20 124 7 0 -6 -15 -11 -33 -11 -57 0 -140 -30 -352 -125 -59 -27 -112
-36 -235 -42 -152 -6 -237 9 -351 65 -44 21 -79 35 -79 32 1 -11 36 -48 80
-82 60 -47 126 -69 233 -75 75 -5 236 8 289 23 12 4 16 -1 15 -16 -1 -11 -5
-20 -11 -20 -5 0 -33 -23 -63 -51 -31 -29 -58 -47 -65 -43 -8 5 -9 0 -5 -17 6
-24 6 -24 -11 -4 -35 41 -96 67 -206 86 -88 16 -115 24 -136 44 -18 17 -33 23
-44 19 -14 -5 -15 -9 -4 -15 8 -6 -4 -9 -32 -9 -26 0 -51 -5 -58 -12 -19 -19
-22 -5 -12 58 14 81 12 146 -4 167 -15 19 -17 6 -32 -163 -8 -97 -17 -113 -37
-74 l-16 29 -1 -27 c0 -17 -5 -25 -15 -24 -20 3 -25 9 -41 53 l-15 38 5 -46
c3 -26 18 -73 33 -105 15 -33 29 -63 32 -69 2 -5 -3 -4 -12 4 -16 12 -16 11
-2 -22 20 -48 19 -60 -2 -22 -20 36 -29 18 -14 -27 17 -48 6 -45 -25 8 -32 54
-44 44 -20 -17 20 -48 20 -55 2 -40 -19 16 -30 -1 -21 -32 12 -38 -22 2 -40
48 -8 22 -13 29 -10 15 3 -14 7 -43 11 -65 l5 -40 -15 31 c-8 18 -20 58 -27
90 -18 87 -26 95 -33 33 -14 -111 -18 -125 -47 -159 -29 -32 -30 -30 -13 18 4
9 -8 1 -25 -18 -18 -19 -30 -29 -26 -22 3 6 1 12 -5 12 -7 0 -8 6 -1 19 14 26
1 34 -21 14 -31 -28 -29 -9 3 30 33 40 31 71 -2 41 -10 -9 -19 -22 -19 -27 0
-13 -69 -77 -83 -77 -6 0 2 14 18 30 22 23 26 33 17 42 -7 7 -12 8 -12 2 0 -5
-15 -18 -33 -28 -27 -16 -23 -10 24 40 31 33 64 74 73 91 17 34 22 83 7 83
-13 0 -90 -86 -103 -115 -12 -26 -41 -49 -83 -65 -37 -14 -30 -5 18 23 23 14
51 40 61 58 l20 34 -40 -31 c-81 -64 -179 -97 -231 -77 -17 6 -8 8 35 9 88 0
145 36 235 147 47 58 60 92 32 81 -12 -5 -15 2 -15 34 0 70 7 76 47 45 20 -16
55 -47 79 -70 l43 -42 19 24 19 24 28 -45 c15 -24 29 -44 31 -44 2 0 4 10 4
23 -1 12 2 46 6 75 5 38 3 52 -6 52 -18 0 -70 -33 -70 -45 0 -5 -4 -4 -9 4
-11 17 41 65 81 75 15 3 33 16 39 28 l11 21 -31 -22 c-17 -12 -31 -18 -31 -12
0 15 60 81 74 81 14 1 121 101 135 129 8 15 9 27 1 40 -21 41 -11 53 19 22 35
-36 83 -60 176 -92 56 -18 91 -23 175 -22 185 0 347 62 470 180 36 34 66 62
68 63 1 0 -3 -10 -9 -22z m41 -53 c-13 -14 -19 -25 -14 -25 5 0 1 -7 -10 -15
-10 -7 -15 -18 -12 -23 3 -5 -9 -22 -27 -39 -69 -65 -258 -149 -312 -139 -20
4 -25 3 -16 -3 10 -7 1 -11 -32 -16 -25 -4 -52 -5 -59 -2 -7 3 3 7 22 8 19 1
-19 5 -85 9 -91 5 -131 12 -165 28 l-45 21 45 -7 c77 -12 241 -6 310 12 143
37 268 102 355 184 51 49 89 54 45 7z m-1713 25 c31 0 54 -2 52 -5 -5 -4 -163
-9 -189 -5 -8 2 1 6 20 10 19 4 41 6 48 4 8 -2 39 -4 69 -4z m305 -26 c-5 -27
-9 -28 -28 -9 -15 14 -15 18 -3 26 20 13 35 5 31 -17z m-507 6 c3 -5 -1 -10
-9 -10 -9 0 -16 5 -16 10 0 6 4 10 9 10 6 0 13 -4 16 -10z m219 -15 c-4 -8 -8
-15 -10 -15 -2 0 -4 7 -4 15 0 8 4 15 10 15 5 0 7 -7 4 -15z m-71 -5 c-27 -11
-30 -18 -6 -16 10 0 18 -5 18 -11 0 -7 10 -19 21 -28 12 -8 31 -31 43 -50 17
-29 18 -37 6 -41 -19 -8 -60 25 -73 58 -6 18 -18 28 -30 28 -11 0 -22 7 -26
15 -7 19 28 55 52 54 13 0 12 -2 -5 -9z m518 -33 c-13 -13 -26 -3 -16 12 3 6
11 8 17 5 6 -4 6 -10 -1 -17z m1286 -14 c-9 -10 -31 -26 -49 -36 l-33 -19 37
36 c38 37 75 52 45 19z m-1477 -13 c0 -5 -4 -10 -10 -10 -5 0 -10 5 -10 10 0
6 5 10 10 10 6 0 10 -4 10 -10z m-342 -18 c15 -10 12 -82 -4 -82 -6 0 -18 16
-27 35 -14 29 -14 33 -2 28 11 -4 13 -1 9 11 -7 17 3 21 24 8z m499 -78 c13
-12 13 -18 4 -24 -7 -4 -12 -11 -11 -16 1 -5 -4 -10 -11 -13 -8 -2 -10 2 -6
13 4 10 1 16 -8 16 -13 0 -13 3 -3 20 15 24 15 24 35 4z m-382 -24 c-3 -5 -13
-6 -21 -3 -12 4 -13 8 -3 14 15 9 32 2 24 -11z m129 -1 c58 -16 96 -61 96
-113 -1 -45 -18 -75 -47 -80 -17 -4 -19 1 -19 37 1 33 -2 41 -15 39 -27 -4
-42 23 -27 47 7 12 17 21 22 21 22 0 -20 30 -50 36 -19 3 -31 10 -28 15 7 12
20 11 68 -2z m-214 -28 c0 -11 -11 -23 -28 -30 -16 -7 -36 -25 -46 -41 -22
-38 -36 -38 -36 -2 0 22 10 36 43 60 49 36 67 40 67 13z m1991 -8 c12 -15 12
-16 -1 -8 -8 6 -40 13 -70 16 l-55 6 56 2 c42 1 60 -3 70 -16z m382 -2 c-5
-19 -36 -34 -47 -23 -12 11 -5 31 12 35 34 9 40 7 35 -12z m-640 -61 c-89 -41
-156 -85 -215 -138 -21 -19 -41 -32 -45 -29 -8 9 60 70 119 109 49 31 195 98
213 97 6 0 -27 -17 -72 -39z m-1643 15 c13 -16 8 -19 -24 -15 -10 1 -15 -3
-12 -8 8 -14 -25 -25 -38 -12 -13 13 -29 13 -20 -1 4 -8 0 -9 -15 -4 -16 5
-20 3 -15 -8 7 -19 -9 -29 -31 -21 -14 6 -14 8 2 27 22 24 90 56 119 57 12 0
27 -7 34 -15z m2015 -100 c56 -69 92 -146 107 -224 11 -63 3 -150 -17 -177
-12 -17 -12 -13 -3 26 15 68 5 177 -22 230 -60 118 -124 176 -184 167 -76 -12
-168 -40 -198 -61 -42 -28 -76 -90 -77 -141 -1 -61 24 -153 48 -179 13 -13 53
-32 96 -45 41 -12 87 -32 102 -46 21 -19 23 -23 8 -18 -12 4 7 -23 45 -64 65
-72 82 -84 60 -42 -11 19 -10 21 4 16 13 -5 15 -2 10 20 -5 20 -4 24 6 18 13
-8 13 -3 -5 65 -6 24 -6 24 7 5 12 -18 14 -14 20 40 3 33 9 73 14 89 5 23 4
28 -7 24 -11 -4 -14 2 -12 31 l3 36 -11 -35 c-13 -43 -35 -69 -74 -86 -19 -9
-24 -13 -12 -14 10 0 32 7 50 15 l32 16 -23 -20 c-51 -44 -225 -47 -289 -5
-22 14 -44 73 -58 157 -11 66 2 39 20 -40 10 -43 21 -85 26 -94 9 -18 74 -39
115 -38 22 1 19 3 -15 10 -40 8 -91 41 -91 60 0 4 17 -2 37 -12 44 -23 77 -24
158 -5 76 18 105 49 105 112 0 51 -19 102 -45 124 -18 15 -18 14 -1 -12 10
-16 14 -28 10 -28 -5 0 -15 9 -21 20 -27 43 -205 66 -240 31 -9 -8 -22 -29
-29 -46 -12 -27 -13 -28 -14 -6 -1 54 93 111 183 111 97 0 173 -83 197 -216
32 -173 33 -228 3 -284 -7 -14 -13 -44 -13 -66 0 -25 -7 -51 -18 -65 -11 -13
-22 -44 -26 -69 -8 -51 -82 -260 -98 -275 -7 -7 -9 3 -6 30 3 22 -1 63 -8 90
l-13 50 19 -25 20 -25 0 47 c0 37 3 46 14 42 10 -4 18 6 25 33 6 21 11 45 11
53 0 9 9 23 20 33 11 9 20 21 20 27 0 16 -104 120 -120 120 -10 0 -8 -4 4 -13
16 -12 13 -13 -24 -10 -42 3 -43 3 -26 -16 18 -20 18 -20 -33 0 -62 23 -119
24 -192 3 -56 -16 -159 -69 -171 -88 -4 -6 -10 -7 -14 -3 -14 14 21 60 78 104
62 47 90 83 64 83 -8 0 -16 5 -18 11 -2 6 -19 -9 -38 -34 -33 -44 -58 -62 -46
-34 2 6 12 37 22 67 9 30 20 59 25 65 5 5 9 16 9 24 0 27 -28 -10 -50 -65
l-19 -49 0 50 c-1 28 3 77 9 109 5 33 8 62 5 64 -2 2 -7 -13 -10 -34 -10 -63
-25 -86 -18 -29 7 60 20 98 31 91 4 -2 9 7 10 20 3 37 -11 23 -49 -52 -29 -57
-34 -78 -34 -135 0 -37 -3 -65 -6 -63 -38 23 -53 190 -23 264 22 54 120 140
217 191 88 46 223 89 276 89 l36 -1 -35 -16 c-30 -14 -32 -17 -15 -21 l20 -5
-20 -7 c-12 -5 11 -8 59 -8 l80 -1 -45 30 c-27 17 -37 29 -26 29 9 0 17 5 17
11 0 15 44 -30 105 -106z m-1767 44 c-3 -8 -7 -3 -11 10 -4 17 -3 21 5 13 5
-5 8 -16 6 -23z m-402 -41 c-3 -13 -6 -29 -6 -35 0 -7 -7 -13 -15 -13 -10 0
-15 10 -15 28 0 32 7 42 28 42 10 0 13 -7 8 -22z m137 15 c-7 -2 -21 -2 -30 0
-10 3 -4 5 12 5 17 0 24 -2 18 -5z m2144 -30 c-3 -10 -5 -4 -5 12 0 17 2 24 5
18 2 -7 2 -21 0 -30z m-2227 7 c-8 -5 -15 -15 -15 -22 0 -18 -28 -78 -37 -78
-17 0 -18 23 -1 52 19 34 55 69 63 62 2 -3 -2 -9 -10 -14z m2420 -30 c0 -49
-13 -68 -22 -32 -7 25 2 82 13 82 5 0 9 -22 9 -50z m-1477 -26 c-3 -9 -9 -11
-12 -6 -4 6 -24 5 -53 -3 -27 -6 -48 -8 -48 -4 0 11 50 27 87 28 26 1 31 -2
26 -15z m138 0 c51 -8 104 -20 118 -25 50 -19 0 -29 -93 -19 -48 6 -94 7 -102
2 -9 -5 10 -9 53 -10 37 -1 82 -5 98 -8 50 -10 145 -56 145 -70 0 -9 -13 -5
-42 11 -40 22 -128 48 -136 41 -2 -2 29 -16 67 -31 57 -21 72 -32 77 -52 7
-28 -29 -112 -40 -94 -4 6 -12 11 -18 11 -6 0 -3 -9 7 -20 14 -15 21 -17 32
-9 11 10 13 -9 13 -109 l0 -120 -42 -21 -43 -22 40 6 c33 5 38 4 27 -6 -30
-32 -330 11 -400 57 -28 18 -41 11 -25 -14 7 -12 7 -20 -1 -27 -14 -13 -86
-46 -86 -40 0 2 17 14 38 25 l37 21 -40 -6 c-50 -8 -97 -43 -118 -88 -28 -59
0 -97 60 -82 14 3 54 34 89 67 35 34 64 56 64 50 0 -22 -122 -132 -147 -132
-16 0 -23 -6 -23 -19 0 -35 -26 -46 -76 -30 l-45 14 18 24 c9 14 18 41 20 60
2 20 15 55 28 78 27 44 108 118 113 103 6 -16 38 -11 54 8 12 13 18 58 25 185
10 171 16 193 50 180 20 -8 71 44 79 81 11 54 1 52 125 30z m-1032 -21 c-12
-15 -12 -16 6 -10 20 7 20 7 1 -8 -15 -11 -22 -12 -27 -3 -8 13 7 38 23 38 6
0 4 -8 -3 -17z m850 -15 c11 -10 13 -10 7 0 -4 7 -1 12 8 12 21 0 21 -36 0
-44 -9 -3 -31 -6 -50 -6 -29 0 -34 3 -33 23 0 21 1 21 8 2 8 -19 8 -19 22 3
16 25 20 27 38 10z m1071 -3 c7 -8 9 -15 6 -15 -4 0 -4 -5 0 -11 4 -8 9 -7 15
2 8 11 12 10 24 -5 21 -27 19 -79 -4 -107 -16 -21 -22 -22 -45 -11 -14 6 -25
15 -24 19 1 5 -4 20 -12 35 -11 23 -10 31 4 52 19 29 20 36 6 36 -5 0 -12 -11
-16 -25 -6 -26 -7 -26 -21 -5 -8 11 -18 18 -22 16 -4 -3 -13 0 -21 6 -13 8
-12 9 2 5 9 -3 22 1 28 9 16 18 64 18 80 -1z m-1987 -32 c-13 -8 -23 -23 -23
-31 0 -13 -2 -14 -12 -3 -11 10 -8 16 11 32 13 10 28 19 35 18 6 0 1 -7 -11
-16z m1295 7 c-10 -6 -25 -7 -40 -1 -20 9 -18 10 17 10 31 0 36 -2 23 -9z
m1152 2 c0 -8 -172 -33 -179 -26 -10 9 11 16 76 23 97 12 103 12 103 3z m-575
-32 c40 -17 54 -30 72 -65 25 -51 21 -55 -58 -55 -59 0 -74 18 -85 99 -6 45
-4 53 7 49 8 -4 37 -16 64 -28z m-1655 1 c-5 -11 -19 -26 -30 -34 -11 -8 -17
-17 -13 -21 4 -4 -1 -4 -11 0 -14 5 -17 4 -11 -5 6 -10 2 -11 -15 -6 -13 4
-20 3 -17 -2 4 -5 1 -10 -6 -11 -7 -1 -25 -4 -42 -8 -23 -4 -17 2 30 31 33 21
70 46 84 56 31 24 45 24 31 0z m1111 -1 c31 -25 12 -26 -21 0 -14 11 -20 20
-14 20 7 0 22 -9 35 -20z m1104 -10 c3 -5 1 -10 -4 -10 -6 0 -11 5 -11 10 0 6
2 10 4 10 3 0 8 -4 11 -10z m-80 -22 c-6 -15 -75 -23 -75 -9 0 6 15 12 33 14
17 2 35 5 39 5 4 1 5 -4 3 -10z m-980 -15 c-16 -8 -38 -25 -47 -37 -10 -11
-18 -16 -18 -9 0 16 58 63 78 63 11 -1 6 -7 -13 -17z m-1265 -47 c0 -2 -7 -7
-16 -10 -8 -3 -12 -2 -9 4 6 10 25 14 25 6z m1697 -28 c-3 -8 -6 -5 -6 6 -1
11 2 17 5 13 3 -3 4 -12 1 -19z m588 -68 c-4 -28 -9 -49 -12 -46 -3 2 -2 28 2
56 4 28 9 49 12 46 3 -2 2 -28 -2 -56z m-2100 -81 c97 -30 89 -38 -13 -14 -72
17 -104 33 -147 70 l-30 27 50 -28 c28 -15 91 -40 140 -55z m2082 -16 c-3 -10
-5 -4 -5 12 0 17 2 24 5 18 2 -7 2 -21 0 -30z m-20 -5 c-3 -8 -6 -5 -6 6 -1
11 2 17 5 13 3 -3 4 -12 1 -19z m-1898 -40 c138 -20 150 -23 111 -30 -47 -8
-263 30 -298 52 -14 10 -13 11 8 6 14 -4 94 -16 179 -28z m1865 -132 c-15 -80
-31 -143 -35 -140 -5 3 -6 19 -3 37 10 58 58 256 62 252 2 -2 -9 -69 -24 -149z
m43 117 c-3 -10 -5 -4 -5 12 0 17 2 24 5 18 2 -7 2 -21 0 -30z m-1690 -9 c-3
-3 -12 -4 -19 -1 -8 3 -5 6 6 6 11 1 17 -2 13 -5z m1680 -51 c-3 -10 -5 -4 -5
12 0 17 2 24 5 18 2 -7 2 -21 0 -30z m-1006 9 c-5 -10 -18 -25 -27 -33 -11 -9
-9 -2 6 19 26 35 36 42 21 14z m535 -44 c30 -28 52 -53 49 -56 -3 -3 7 -19 22
-35 l28 -30 -43 29 c-42 27 -82 38 -82 24 0 -4 18 -28 40 -53 22 -25 40 -47
40 -49 0 -2 -22 -4 -49 -3 l-49 1 19 -35 c26 -48 24 -60 -13 -100 -25 -26 -28
-32 -13 -27 16 5 14 1 -7 -18 l-27 -25 29 -6 c37 -8 38 -24 4 -64 -30 -36 -49
-32 -29 6 18 35 13 39 -20 17 -26 -17 -27 -17 -57 13 l-30 31 31 7 c51 11 46
25 -9 25 -36 0 -67 8 -110 30 -33 17 -62 30 -66 30 -4 0 14 -18 39 -40 59 -52
118 -157 119 -211 0 -22 -2 -43 -6 -46 -3 -4 -6 1 -6 11 0 18 -50 120 -74 151
-9 11 1 -13 21 -53 31 -62 35 -76 25 -92 -7 -11 -12 -27 -12 -35 0 -8 -4 -15
-10 -15 -5 0 -10 13 -10 29 0 21 -13 43 -46 78 -26 28 -43 40 -39 28 16 -50
18 -76 4 -73 -15 3 -16 -9 -4 -61 5 -23 4 -31 -4 -27 -6 4 -11 16 -11 27 0 37
-28 84 -88 150 -72 78 -144 115 -242 123 l-65 6 60 -15 c109 -25 167 -66 253
-176 24 -31 6 -46 -51 -42 l-52 3 55 -22 c49 -20 52 -23 30 -29 -14 -3 -36 -5
-50 -3 -24 3 -23 2 4 -10 38 -18 17 -30 -30 -17 -30 8 -34 8 -23 -5 14 -17 -6
-19 -45 -4 -36 13 -33 -5 4 -27 33 -19 36 -26 18 -40 -36 -27 -50 -23 -100 27
-62 63 -78 64 -34 3 36 -51 80 -133 74 -138 -2 -2 -21 26 -42 63 -25 44 -65
91 -115 136 l-77 69 25 28 c28 32 47 29 30 -4 -9 -17 -9 -19 0 -11 18 16 20
48 5 62 -11 10 -18 8 -36 -10 -13 -13 -25 -23 -28 -24 -3 0 -12 -3 -20 -7 -8
-3 -21 -7 -29 -9 -8 -2 0 -13 22 -28 38 -26 115 -137 166 -237 41 -82 39 -103
-3 -30 -45 78 -58 91 -50 48 l7 -34 -34 24 c-19 13 -55 41 -80 62 -26 20 -49
37 -52 37 -3 0 3 -19 13 -42 21 -45 28 -106 10 -78 -5 8 -10 13 -10 10 0 -3
-4 -21 -10 -40 -9 -33 -8 -34 6 -15 16 19 16 19 12 -7 -3 -17 0 -29 8 -32 8
-3 14 -17 14 -31 0 -31 -100 -142 -137 -151 -31 -8 -29 -24 2 -24 14 0 25 -4
25 -9 0 -17 -45 -38 -65 -32 -11 4 -51 4 -90 1 -84 -7 -61 -16 65 -25 57 -4
80 -3 70 4 -18 12 -7 17 63 25 34 4 47 2 47 -7 0 -8 -28 -18 -77 -26 -101 -16
-133 -29 -78 -31 22 0 54 -7 70 -14 29 -12 29 -13 9 -24 -11 -6 -61 -14 -110
-17 -86 -7 -92 -5 -174 28 -79 32 -115 38 -92 15 6 -6 8 -17 5 -26 -4 -10 -2
-13 5 -8 6 3 13 2 17 -3 6 -10 -27 -7 -45 4 -34 21 11 -29 71 -80 l24 -20 -23
-3 c-41 -6 -83 29 -119 98 l-33 65 4 145 c6 184 5 174 20 218 34 96 146 227
221 258 46 19 190 44 253 44 38 0 51 6 100 50 31 28 79 59 107 70 l50 19 -45
1 c-59 1 -116 28 -165 79 -21 22 -36 41 -32 41 4 0 42 -10 84 -22 55 -16 106
-22 175 -23 l97 0 90 62 c106 73 151 88 246 79 85 -8 208 -39 213 -55 2 -6 9
-11 15 -11 23 0 -48 60 -108 90 -58 29 -70 32 -132 28 l-68 -4 50 23 50 23
-40 -6 c-22 -4 -51 -13 -64 -21 -18 -12 -22 -12 -19 -1 2 7 33 32 68 56 35 23
58 42 50 42 -20 1 35 30 85 46 81 26 111 19 171 -38z m461 -20 c-3 -7 -5 -2
-5 12 0 14 2 19 5 13 2 -7 2 -19 0 -25z m-1057 -3 c-7 -8 -20 -15 -29 -15 -11
1 -8 5 9 15 32 18 35 18 20 0z m-492 -70 c-31 -30 -65 -55 -75 -54 -14 0 -12
4 11 22 16 12 47 37 68 55 61 50 59 38 -4 -23z m296 6 c27 -6 54 -15 60 -20 6
-5 22 -11 36 -14 14 -2 -2 -5 -35 -6 -71 -1 -135 15 -135 34 0 7 -8 16 -17 19
-26 8 34 -1 91 -13z m236 2 c0 -10 6 -29 13 -43 21 -40 27 -72 14 -67 -7 3
-11 10 -9 16 1 7 -2 10 -8 6 -9 -6 -70 78 -70 97 0 4 14 8 30 8 22 0 30 -5 30
-17z m-227 -88 c43 -10 76 -20 73 -23 -3 -3 -1 -11 5 -18 12 -15 5 -20 -41
-27 -21 -4 28 0 90 6 8 1 17 -2 20 -8 3 -6 -30 -11 -88 -13 -104 -3 -232 25
-278 60 -36 29 -23 33 25 9 46 -24 76 -28 47 -6 -10 8 -18 26 -18 40 0 14 -4
25 -9 25 -5 0 -9 4 -9 9 0 6 24 -1 53 -14 28 -13 87 -31 130 -40z m-229 -92
c41 -82 79 -120 137 -138 35 -10 40 -14 26 -20 -31 -13 -94 13 -121 48 -46 61
-102 177 -86 177 5 0 25 -30 44 -67z m1516 32 c16 -19 5 -34 -12 -17 -18 18
-45 14 -61 -8 -12 -17 -16 -18 -20 -6 -13 34 68 61 93 31z m-26 -68 c-9 -5
-24 -7 -34 -4 -15 4 -21 -9 -40 -82 -30 -111 -38 -130 -70 -146 -38 -20 -120
-28 -155 -15 l-30 10 36 -4 c48 -6 129 11 150 30 19 17 36 59 64 159 l17 60
39 0 c27 0 34 -2 23 -8z m-38 -62 c-3 -8 -1 -15 5 -15 6 0 4 -7 -5 -15 -8 -8
-17 -15 -20 -15 -3 0 -3 7 -1 15 3 8 7 22 10 30 2 8 7 15 11 15 3 0 4 -7 0
-15z m34 -20 c0 -5 -5 -3 -10 5 -5 8 -10 20 -10 25 0 6 5 3 10 -5 5 -8 10 -19
10 -25z m-25 -35 c-3 -5 -12 -10 -18 -10 -7 0 -6 4 3 10 19 12 23 12 15 0z
m-1345 -40 c-20 -13 -33 -13 -25 0 3 6 14 10 23 10 15 0 15 -2 2 -10z m1361
-18 c-13 -25 -91 -95 -98 -88 -3 3 6 19 20 36 14 16 28 39 32 49 3 11 16 21
28 23 29 5 30 3 18 -20z m-2581 -21 c0 -6 -5 -13 -10 -16 -15 -9 -43 3 -35 15
8 13 45 13 45 1z m2185 -31 c-10 -11 -21 -18 -23 -15 -3 3 3 12 14 20 27 20
30 18 9 -5z m-2190 -30 c3 -5 1 -10 -4 -10 -6 0 -11 5 -11 10 0 6 2 10 4 10 3
0 8 -4 11 -10z m2175 -14 c0 -2 -7 -7 -16 -10 -8 -3 -12 -2 -9 4 6 10 25 14
25 6z m-2150 -34 c18 -5 4 -9 -50 -12 -80 -6 -93 -4 -70 10 18 12 85 13 120 2z
m83 -9 c-7 -2 -19 -2 -25 0 -7 3 -2 5 12 5 14 0 19 -2 13 -5z m-100 -50 c-18
-2 -48 -2 -65 0 -18 2 -4 4 32 4 36 0 50 -2 33 -4z m-16 -39 c24 -3 34 -11 39
-28 14 -59 -13 -78 -108 -74 l-73 3 -3 44 c-5 66 -1 71 60 65 29 -3 68 -7 85
-10z m201 -28 c7 -33 -8 -66 -28 -66 -16 0 -20 7 -20 33 0 50 40 77 48 33z
m2492 -36 c-20 -13 -43 -13 -35 0 3 6 16 10 28 10 18 0 19 -2 7 -10z m-971
-33 c0 -21 -1 -21 -9 -2 -12 28 -12 37 0 30 6 -3 10 -16 9 -28z m57 -13 c-14
-26 -15 -27 -16 -7 0 33 11 56 22 45 6 -6 4 -20 -6 -38z m-219 -9 l0 -45 -23
37 c-16 27 -19 40 -11 45 25 16 34 7 34 -37z m18 5 c3 -5 1 -10 -4 -10 -6 0
-11 5 -11 10 0 6 2 10 4 10 3 0 8 -4 11 -10z m-1557 -17 c-15 -2 -42 -2 -60 0
-18 2 -6 4 27 4 33 0 48 -2 33 -4z m2655 -19 c42 -7 47 -25 18 -63 -14 -18
-31 -25 -70 -29 l-51 -5 0 40 c0 61 18 71 103 57z m-2675 -21 c-10 -2 -26 -2
-35 0 -10 3 -2 5 17 5 19 0 27 -2 18 -5z m1809 -35 c-3 -8 -6 -5 -6 6 -1 11 2
17 5 13 3 -3 4 -12 1 -19z m-1765 -9 c22 -12 35 -88 17 -100 -19 -12 -72 -11
-64 1 12 19 -1 10 -26 -17 -13 -15 -17 -22 -8 -15 13 10 23 9 52 -3 41 -17 55
-37 55 -78 0 -20 -6 -29 -24 -33 -25 -6 -33 -24 -11 -24 6 -1 -1 -7 -18 -15
-25 -11 -27 -14 -10 -16 11 -1 25 -3 30 -4 6 -2 17 -4 25 -5 8 -1 -1 -7 -20
-12 -34 -11 -34 -11 -10 -18 23 -8 23 -8 -7 -9 -18 -1 -33 -5 -33 -11 0 -10
91 -40 123 -40 40 0 8 -26 -49 -38 -32 -7 -70 -16 -84 -19 l-25 -7 25 -3 c79
-11 89 -14 84 -28 -7 -17 -63 -34 -114 -36 -22 -1 -28 -3 -15 -6 11 -3 31 -10
45 -16 l25 -10 -25 -7 c-14 -3 -37 -3 -52 1 -41 11 -34 1 15 -21 l42 -20 -55
0 c-41 0 -65 6 -94 24 -39 24 -40 25 -43 91 l-4 68 26 -32 c15 -17 31 -31 36
-31 6 0 1 10 -11 22 -23 25 -40 78 -40 126 0 40 20 80 76 152 52 67 64 97 64
160 l0 48 43 -5 c23 -3 49 -10 59 -14z m1235 -39 c-3 -22 -1 -40 4 -40 15 0
10 -17 -6 -24 -8 -3 -21 -3 -29 0 -15 6 -11 29 16 82 17 32 21 27 15 -18z
m-798 -35 c61 -40 58 -47 -4 -10 -23 13 -46 21 -50 17 -5 -4 -5 -1 -1 6 4 6 2
12 -3 12 -6 0 -11 5 -11 11 0 11 -2 13 69 -36z m1706 25 c-27 -12 -43 -12 -25
0 8 5 22 9 30 9 10 0 8 -3 -5 -9z m511 -7 c-8 -8 -118 -5 -127 4 -5 4 24 6 62
5 39 -2 68 -6 65 -9z m-624 -24 c-24 -11 -49 -18 -55 -16 -18 6 44 36 73 36
21 -1 18 -4 -18 -20z m8 -29 c-14 -4 -34 -8 -45 -8 -16 0 -15 2 5 8 14 4 34 8
45 8 16 0 15 -2 -5 -8z m595 -2 c2 -1 5 -30 7 -63 l3 -60 -37 -9 c-21 -5 -38
-15 -38 -22 0 -7 -10 -20 -22 -28 -22 -15 -21 -16 27 -16 36 0 46 -3 35 -10
-15 -10 -99 -3 -112 9 -4 4 4 29 17 55 14 27 25 59 25 71 0 13 3 37 6 55 7 31
8 32 46 27 22 -3 41 -7 43 -9z m-1495 -18 c-6 -11 -16 -20 -22 -20 -6 0 -3 9
7 20 10 11 20 20 22 20 2 0 -1 -9 -7 -20z m817 4 c-3 -3 -12 -4 -19 -1 -8 3
-5 6 6 6 11 1 17 -2 13 -5z m-1808 -99 c0 -5 -6 1 -14 15 -8 14 -14 30 -14 35
0 6 6 -1 14 -15 8 -14 14 -29 14 -35z m2017 30 c11 -11 11 -14 -2 -19 -9 -3
-21 -3 -27 0 -7 3 -3 -2 8 -11 11 -9 30 -18 43 -22 27 -6 25 -24 -4 -37 -20
-9 -20 -10 -2 -28 23 -23 15 -38 -20 -38 -37 0 -13 -22 41 -37 l42 -11 -37 -1
c-40 -1 -54 -21 -15 -22 21 0 21 -1 2 -9 -11 -5 -38 -10 -60 -11 l-40 -2 35
-7 c27 -6 16 -8 -46 -9 -90 -1 -119 15 -112 61 2 18 14 27 58 41 64 20 81 35
74 63 -4 15 -19 23 -65 33 -56 13 -64 12 -171 -17 -142 -39 -193 -48 -202 -33
-4 6 -1 11 8 11 10 0 13 6 10 15 -5 11 -17 14 -48 10 -22 -2 0 5 49 16 66 15
131 21 247 22 133 2 160 5 174 19 15 15 15 19 3 34 -13 16 -12 17 15 10 15 -4
35 -13 42 -21z m-948 -15 c-7 -10 -14 -17 -17 -15 -4 4 18 35 25 35 2 0 -1 -9
-8 -20z m37 -40 c-3 -5 -14 -10 -23 -10 -15 0 -15 2 -2 10 20 13 33 13 25 0z
m1153 -15 c28 -4 52 -10 52 -13 -1 -17 -59 -47 -100 -52 l-46 -6 2 41 c2 22 3
41 3 43 1 2 9 1 19 -2 9 -2 41 -8 70 -11z m-2113 -61 c4 -36 4 -68 2 -71 -3
-3 -20 -6 -37 -6 -44 -3 -61 24 -36 52 18 19 18 33 1 74 -6 14 -2 17 28 17
l35 0 7 -66z m174 56 c20 -5 53 -12 75 -15 45 -7 38 -18 -20 -32 -31 -8 -47
-7 -65 3 -13 8 -41 18 -61 24 -21 6 -38 15 -38 20 0 13 62 13 109 0z m859 -20
c-7 -10 -14 -17 -16 -15 -2 2 -25 -3 -50 -11 -74 -22 -73 -15 3 16 39 16 71
29 73 29 1 1 -3 -8 -10 -19z m1472 -1 c0 -6 -4 -7 -10 -4 -5 3 -10 11 -10 16
0 6 5 7 10 4 6 -3 10 -11 10 -16z m-1217 4 c-7 -2 -19 -2 -25 0 -7 3 -2 5 12
5 14 0 19 -2 13 -5z m-222 -56 c-13 -13 -26 -3 -16 12 3 6 11 8 17 5 6 -4 6
-10 -1 -17z m1193 -6 c27 -7 65 -19 84 -27 29 -12 32 -16 22 -29 -7 -8 -27
-15 -44 -16 l-31 0 39 -18 39 -17 -32 -13 -31 -14 27 -14 c16 -8 34 -20 42
-27 11 -12 8 -15 -20 -24 -19 -6 -53 -14 -77 -17 -47 -7 -48 -20 -2 -30 16 -4
33 -11 36 -17 11 -17 -77 0 -106 20 -14 10 -33 21 -42 25 -13 5 -18 17 -18 47
0 47 11 73 48 113 l26 27 -27 0 c-31 0 -31 0 -15 34 7 17 15 23 22 17 6 -4 33
-14 60 -20z m-109 9 c-12 -20 -67 -42 -91 -36 -37 10 -29 24 19 34 58 13 79
14 72 2z m-2741 -9 c6 -8 -105 -33 -113 -26 -3 3 84 33 101 34 4 1 9 -3 12 -8z
m825 -8 c39 -23 39 -30 -1 -51 -18 -9 -47 -32 -65 -49 -27 -28 -36 -32 -65
-26 -18 3 -41 10 -51 15 -17 9 -16 11 3 39 12 16 27 29 34 29 7 0 33 13 57 30
52 35 49 35 88 13z m1356 -11 c32 -11 61 -24 63 -30 3 -9 -208 -82 -239 -82
-29 0 7 -14 133 -50 152 -44 155 -35 -40 -96 -86 -27 -118 -41 -105 -46 10 -3
75 -24 145 -44 70 -21 125 -41 122 -45 -2 -4 -70 -33 -150 -65 l-147 -58 -156
52 c-86 29 -162 52 -170 52 -32 0 6 15 144 60 80 26 147 49 149 51 3 2 -60 24
-140 49 -79 25 -144 47 -144 50 0 3 66 21 146 40 80 19 147 37 150 41 2 4 -38
17 -89 29 -50 13 -103 28 -116 35 -23 12 -22 12 17 19 23 3 81 20 129 37 77
26 98 29 163 25 41 -3 102 -14 135 -24z m1105 2 c14 -7 20 -13 14 -14 -27 -1
-130 23 -139 32 -14 14 93 -1 125 -18z m-2045 -7 c48 -9 64 -15 52 -20 -28
-11 -64 -8 -123 9 -41 12 -58 13 -76 4 -22 -11 -21 -10 2 10 17 14 33 19 50
15 14 -4 57 -12 95 -18z m1879 -33 c3 -8 2 -12 -4 -9 -6 3 -10 10 -10 16 0 14
7 11 14 -7z m-2544 -29 c0 -8 -4 -15 -9 -15 -5 0 -11 7 -15 15 -3 9 0 15 9 15
8 0 15 -7 15 -15z m2103 -11 c-3 -8 -12 -13 -20 -10 -8 3 -17 6 -19 6 -3 0 -2
5 1 10 11 17 45 12 38 -6z m-1861 -83 c36 -16 37 -17 20 -37 -30 -35 -113 -94
-133 -94 -27 0 -79 28 -79 42 0 6 24 36 54 65 59 59 59 59 138 24z m666 -26
c62 -1 117 -6 122 -11 7 -7 -35 -25 -122 -54 -73 -24 -137 -45 -141 -48 -5 -2
51 -24 124 -48 72 -23 136 -47 140 -51 4 -4 -64 -33 -152 -62 -146 -50 -164
-54 -197 -44 -64 20 -282 106 -282 113 0 3 30 13 68 23 110 27 230 62 236 67
2 3 -52 23 -122 45 -204 63 -244 84 -120 63 56 -10 71 -9 104 5 31 13 58 15
134 10 52 -3 146 -7 208 -8z m1035 -1 c38 -20 66 -43 78 -66 7 -14 3 -20 -20
-33 -17 -8 -36 -15 -43 -15 -11 0 -159 87 -175 103 -4 5 76 22 115 26 7 0 27
-6 45 -15z m137 -5 c0 -6 -4 -7 -10 -4 -5 3 -10 11 -10 16 0 6 5 7 10 4 6 -3
10 -11 10 -16z m-1690 -49 c10 -31 11 -43 2 -52 -9 -9 -12 -9 -12 3 0 12 -2
12 -10 -1 -7 -11 -10 2 -10 43 0 65 10 68 30 7z m1370 -5 c0 -13 -4 -27 -10
-30 -6 -4 -10 8 -10 30 0 22 4 34 10 30 6 -3 10 -17 10 -30z m-40 -22 c-4 -42
-5 -44 -8 -15 -3 30 2 62 10 62 2 0 1 -21 -2 -47z m-2275 -3 c-3 -5 -12 -10
-18 -10 -7 0 -6 4 3 10 19 12 23 12 15 0z m2745 -10 c-38 -24 -140 -51 -157
-42 -14 8 -9 12 27 22 25 6 65 17 90 25 47 13 65 11 40 -5z m-2168 -13 c42
-11 45 -14 28 -24 -15 -10 -28 -9 -64 3 -87 30 -59 46 36 21z m2513 -78 c22
-1 -21 -6 -95 -10 -74 -4 -151 -5 -170 -1 -27 5 -13 8 60 13 52 3 111 4 130 3
19 -2 53 -5 75 -5z m-1868 -163 c65 -19 167 -53 227 -75 60 -23 121 -41 137
-41 16 0 59 12 96 26 197 75 313 110 313 95 0 -9 -11 -15 -228 -107 l-173 -75
-72 26 c-40 14 -135 51 -212 81 -267 106 -298 130 -88 70z m982 -81 c-8 -8
-211 -86 -215 -83 -7 7 122 72 156 79 45 9 65 10 59 4z m-614 -265 l50 -8 -49
-1 c-39 -1 -62 6 -113 34 -81 46 -82 55 -1 14 35 -18 85 -35 113 -39z"/>
<path d="M2515 4730 c3 -5 8 -10 11 -10 2 0 4 5 4 10 0 6 -5 10 -11 10 -5 0
-7 -4 -4 -10z"/>
<path d="M2608 4720 c12 -10 18 -20 15 -24 -4 -3 2 -12 12 -20 10 -7 15 -18
11 -25 -6 -9 -11 -9 -22 0 -12 10 -13 9 -8 -5 3 -9 11 -16 17 -16 6 0 19 -7
29 -17 22 -20 24 -10 2 12 -13 12 -14 19 -5 28 15 15 14 30 -1 22 -7 -4 -4 1
6 9 20 16 20 16 0 31 -21 16 -20 16 -53 19 l-24 3 21 -17z"/>
<path d="M2683 4676 c3 -7 1 -18 -5 -24 -6 -6 -6 -12 1 -17 6 -3 10 -1 9 6 -2
6 2 13 9 16 8 3 10 -6 8 -28 -4 -29 -3 -30 9 -14 13 18 14 18 25 -3 12 -22 11
-48 -3 -70 -4 -7 -5 -16 -2 -19 3 -4 6 -1 6 6 0 7 5 9 11 6 7 -5 2 -16 -13
-33 l-23 -26 32 22 c17 12 36 22 42 22 6 0 11 3 11 6 0 9 -67 115 -89 142 -21
25 -36 29 -28 8z m93 -129 c2 -19 -11 -23 -21 -7 -3 6 0 10 7 10 10 0 9 3 -2
11 -12 8 -12 10 -1 7 8 -2 15 -12 17 -21z"/>
<path d="M2717 4591 c-3 -12 -1 -21 3 -21 14 0 19 15 11 29 -6 9 -10 7 -14 -8z"/>
<path d="M1742 4568 c-40 -11 -71 -22 -69 -24 5 -5 147 23 177 35 25 10 25 10
-5 10 -16 0 -63 -10 -103 -21z"/>
<path d="M2893 4095 c-3 -9 -3 -18 -1 -21 3 -3 8 4 11 16 6 23 -1 27 -10 5z"/>
<path d="M2941 4054 c0 -11 3 -14 6 -6 3 7 2 16 -1 19 -3 4 -6 -2 -5 -13z"/>
<path d="M2911 4044 c0 -11 3 -14 6 -6 3 7 2 16 -1 19 -3 4 -6 -2 -5 -13z"/>
<path d="M2697 4198 c-3 -29 -8 -63 -12 -75 -7 -21 -4 -23 26 -22 21 1 26 3
13 6 -20 4 -21 9 -16 74 6 80 -3 94 -11 17z"/>
<path d="M2657 4151 c-4 -18 -6 -48 -6 -65 1 -21 4 -14 10 23 10 60 6 96 -4
42z"/>
<path d="M1286 3365 c4 -16 10 -37 15 -45 7 -12 8 -11 8 5 0 11 -6 31 -14 45
l-15 25 6 -30z"/>
<path d="M1311 3253 c0 -12 -4 -30 -7 -40 -5 -17 -5 -17 6 0 6 10 9 28 7 40
-4 22 -4 22 -6 0z"/>
<path d="M1237 3116 c-4 -10 -5 -21 -2 -24 9 -9 17 6 13 25 -3 17 -4 17 -11
-1z"/>
<path d="M2563 3725 c0 -8 4 -12 9 -9 5 3 6 10 3 15 -9 13 -12 11 -12 -6z"/>
<path d="M1131 3424 c0 -11 3 -14 6 -6 3 7 2 16 -1 19 -3 4 -6 -2 -5 -13z"/>
<path d="M2758 3373 c12 -2 30 -2 40 0 9 3 -1 5 -23 4 -22 0 -30 -2 -17 -4z"/>
<path d="M2850 3356 c0 -2 7 -7 16 -10 8 -3 12 -2 9 4 -6 10 -25 14 -25 6z"/>
<path d="M2788 3063 c12 -2 30 -2 40 0 9 3 -1 5 -23 4 -22 0 -30 -2 -17 -4z"/>
<path d="M2828 3043 c6 -2 18 -2 25 0 6 3 1 5 -13 5 -14 0 -19 -2 -12 -5z"/>
<path d="M1789 3175 c-14 -8 -34 -27 -44 -42 l-18 -28 34 31 c19 17 43 36 54
42 11 6 16 11 10 11 -5 0 -22 -6 -36 -14z"/>
<path d="M1914 3130 c-7 -22 -16 -34 -25 -31 -8 2 -35 6 -61 9 l-47 4 -4 -73
-3 -74 -2 73 c-2 74 -9 84 -37 55 -18 -17 -17 -29 10 -105 16 -44 65 -105 65
-80 0 7 16 4 46 -8 47 -20 100 -26 121 -12 20 13 33 61 33 122 l0 59 -37 3
c-37 3 -38 4 -43 48 l-5 45 -11 -35z m-47 -56 c-3 -3 -12 -4 -19 -1 -8 3 -5 6
6 6 11 1 17 -2 13 -5z m40 -51 c-3 -10 -5 -4 -5 12 0 17 2 24 5 18 2 -7 2 -21
0 -30z m-73 -62 c3 -4 -6 -6 -19 -3 -14 2 -25 6 -25 8 0 8 39 4 44 -5z"/>
<path d="M2023 3025 c0 -22 2 -30 4 -17 2 12 2 30 0 40 -3 9 -5 -1 -4 -23z"/>
<path d="M1850 2871 c8 -5 33 -12 55 -15 28 -4 33 -3 15 2 -46 16 -86 23 -70
13z"/>
<path d="M2740 2776 c0 -2 7 -7 16 -10 8 -3 12 -2 9 4 -6 10 -25 14 -25 6z"/>
<path d="M2234 2531 c3 -5 16 -11 28 -14 22 -6 22 -5 4 8 -22 17 -40 20 -32 6z"/>
<path d="M2180 2503 c8 -3 30 -12 48 -19 17 -7 32 -11 32 -9 0 9 -60 35 -77
34 -14 0 -15 -2 -3 -6z"/>
<path d="M2134 2481 c3 -5 16 -11 28 -14 22 -6 22 -5 4 8 -22 17 -40 20 -32 6z"/>
<path d="M1595 2237 c-10 -8 -14 -16 -9 -19 5 -3 18 3 28 13 22 22 9 26 -19 6z"/>
<path d="M1740 2166 c19 -8 39 -11 45 -8 11 7 -29 20 -60 20 -12 0 -6 -5 15
-12z"/>
<path d="M1737 2107 c17 -19 34 -45 38 -57 4 -12 9 -19 12 -17 9 10 -37 87
-60 98 -18 10 -16 6 10 -24z"/>
<path d="M1341 2004 c0 -11 3 -14 6 -6 3 7 2 16 -1 19 -3 4 -6 -2 -5 -13z"/>
<path d="M1285 1917 c-6 -21 -1 -35 19 -62 15 -19 33 -35 41 -35 18 0 11 19
-26 80 l-28 44 -6 -27z"/>
<path d="M3275 1500 c3 -5 8 -10 11 -10 2 0 4 5 4 10 0 6 -5 10 -11 10 -5 0
-7 -4 -4 -10z"/>
<path d="M1756 5562 c-3 -5 -4 -16 -2 -27 3 -24 51 -29 72 -7 15 14 15 17 -2
29 -20 14 -60 17 -68 5z"/>
<path d="M1847 5530 c-3 -11 -3 -20 -1 -20 2 0 8 9 14 20 6 11 7 20 2 20 -6 0
-12 -9 -15 -20z"/>
<path d="M1883 5518 c2 -7 12 -13 22 -13 10 0 20 6 23 13 2 7 -6 12 -23 12
-17 0 -25 -5 -22 -12z"/>
<path d="M1636 5402 c-3 -6 2 -20 12 -32 18 -22 19 -22 45 -5 27 17 36 35 18
35 -6 0 -13 -4 -16 -10 -4 -6 -15 -4 -30 6 -13 9 -26 11 -29 6z m38 -28 c5
-14 4 -15 -9 -4 -17 14 -19 20 -6 20 5 0 12 -7 15 -16z"/>
<path d="M830 2900 c0 -5 5 -10 10 -10 6 0 10 5 10 10 0 6 -4 10 -10 10 -5 0
-10 -4 -10 -10z"/>
<path d="M721 2774 c-1 -11 11 -31 26 -45 19 -16 22 -17 11 -4 -9 11 -21 32
-27 45 -9 22 -10 23 -10 4z"/>
<path d="M785 2766 c-12 -8 -16 -19 -11 -31 12 -33 85 -5 86 33 0 16 -51 16
-75 -2z"/>
<path d="M866 2755 c-3 -13 -19 -31 -34 -39 -20 -11 -22 -15 -9 -16 19 0 67
42 67 59 0 22 -18 19 -24 -4z"/>
<path d="M1190 2761 c0 -5 7 -12 16 -15 22 -9 24 -8 24 9 0 8 -9 15 -20 15
-11 0 -20 -4 -20 -9z"/>
<path d="M1211 2679 c-11 -19 -11 -21 4 -15 9 3 19 6 21 6 2 0 4 7 4 15 0 21
-13 19 -29 -6z"/>
<path d="M1338 2653 c7 -3 16 -2 19 1 4 3 -2 6 -13 5 -11 0 -14 -3 -6 -6z"/>
<path d="M590 2501 c0 -11 -4 -23 -10 -26 -21 -13 -9 -23 28 -23 20 0 41 5 45
11 6 9 10 9 14 -1 2 -6 9 -9 15 -6 5 3 0 13 -11 21 -12 8 -21 21 -21 29 0 9
-11 14 -30 14 -23 0 -30 -5 -30 -19z"/>
<path d="M708 2443 c-7 -29 3 -54 19 -51 22 4 28 48 7 48 -8 0 -12 5 -9 10 3
6 2 10 -3 10 -5 0 -12 -8 -14 -17z"/>
<path d="M1226 2355 c9 -14 19 -23 22 -21 3 3 -1 12 -7 20 -10 11 -8 15 6 19
12 3 8 5 -10 6 -27 1 -27 1 -11 -24z"/>
<path d="M1112 2334 c-32 -22 -27 -37 8 -19 16 8 41 15 55 15 15 0 24 4 20 10
-9 15 -58 12 -83 -6z"/>
<path d="M3251 2248 c-7 -19 -5 -24 13 -29 23 -6 58 3 63 17 1 5 -1 15 -6 23
-8 12 -12 12 -25 2 -11 -9 -16 -10 -16 -2 0 20 -20 12 -29 -11z"/>
<path d="M2863 2060 c-13 -5 -23 -16 -23 -25 0 -19 47 -38 77 -30 24 6 48 40
38 55 -8 12 -62 12 -92 0z"/>
<path d="M982 2037 c-7 -8 -7 -18 -2 -27 8 -13 10 -12 10 3 0 9 5 17 10 17 6
0 10 5 10 10 0 14 -16 12 -28 -3z"/>
<path d="M2980 1995 c-26 -31 24 -49 54 -19 9 8 14 20 11 25 -9 14 -51 11 -65
-6z"/>
<path d="M128 1393 c7 -3 16 -2 19 1 4 3 -2 6 -13 5 -11 0 -14 -3 -6 -6z"/>
<path d="M3665 1392 c-12 -12 -3 -18 27 -17 17 0 33 5 35 12 4 12 -51 16 -62
5z"/>
<path d="M3560 1336 c0 -25 12 -46 26 -46 8 0 14 -5 14 -12 0 -6 3 -9 6 -5 6
6 -33 77 -42 77 -2 0 -4 -6 -4 -14z"/>
<path d="M240 1313 c-7 -16 -15 -23 -17 -15 -8 21 -23 13 -23 -13 0 -14 4 -25
9 -25 11 0 61 58 61 71 0 19 -17 8 -30 -18z"/>
<path d="M281 1310 c-5 -16 -15 -30 -22 -30 -7 0 -10 -2 -7 -5 3 -3 17 0 32 6
17 8 26 20 26 36 0 32 -16 29 -29 -7z"/>
<path d="M3600 1321 c0 -6 5 -13 10 -16 6 -3 10 -15 10 -26 0 -10 5 -19 10
-19 17 0 12 57 -6 64 -21 8 -24 8 -24 -3z"/>
<path d="M3650 1285 c0 -14 5 -25 10 -25 6 0 10 5 10 12 0 9 3 9 12 0 13 -13
28 -16 28 -4 0 4 -14 15 -30 24 -30 17 -30 17 -30 -7z"/>
<path d="M170 1274 c0 -8 5 -12 10 -9 6 3 10 10 10 16 0 5 -4 9 -10 9 -5 0
-10 -7 -10 -16z"/>
<path d="M150 1213 c0 -5 -10 -15 -22 -21 l-23 -11 23 0 c22 -1 41 23 28 36
-3 4 -6 2 -6 -4z"/>
<path d="M3705 1192 c6 -6 24 -14 40 -18 21 -4 27 -3 20 4 -5 6 -23 14 -40 18
-21 4 -27 3 -20 -4z"/>
<path d="M463 1143 c15 -2 37 -2 50 0 12 2 0 4 -28 4 -27 0 -38 -2 -22 -4z"/>
<path d="M110 1121 c0 -4 33 -11 73 -15 127 -11 216 -39 157 -48 -53 -8 -8
-43 125 -96 28 -11 67 -27 88 -36 51 -22 47 -14 -13 24 -42 27 -48 35 -40 50
6 11 19 25 31 33 15 11 17 16 7 20 -10 4 -8 10 6 21 22 18 156 21 313 8 48 -4
79 -4 73 2 -5 5 -138 12 -297 17 -158 5 -310 13 -338 18 -63 12 -185 14 -185
2z"/>
<path d="M3570 1118 c-36 -4 -175 -12 -310 -17 -236 -8 -280 -13 -280 -32 0
-5 12 -4 28 2 15 7 85 14 156 17 112 4 134 2 163 -13 29 -16 31 -20 18 -28
-15 -8 -14 -11 4 -24 12 -8 19 -18 16 -23 -3 -4 1 -10 7 -13 8 -2 -1 -12 -21
-23 -70 -40 -73 -53 -4 -19 40 19 81 35 92 35 11 0 26 9 34 20 8 11 28 23 45
26 36 7 39 15 16 39 -9 9 -14 18 -11 21 2 3 60 10 128 16 68 6 131 15 139 19
19 11 -133 9 -220 -3z"/>
<path d="M757 992 c-13 -20 13 -29 93 -35 79 -5 83 -4 52 8 -18 8 -49 17 -70
20 -20 4 -44 9 -54 11 -9 3 -19 1 -21 -4z"/>
<path d="M3081 979 c-12 -11 -21 -23 -19 -25 8 -7 68 21 65 30 -6 18 -23 16
-46 -5z"/>
<path d="M2950 975 c-41 -7 -88 -18 -105 -24 -16 -7 -52 -19 -80 -26 l-50 -14
40 0 c22 -1 75 10 118 24 43 14 93 26 111 28 18 1 39 8 45 15 7 6 8 11 4 11
-4 -1 -42 -7 -83 -14z"/>
<path d="M995 940 c22 -10 58 -19 80 -19 36 0 33 2 -30 19 -88 24 -101 24 -50
0z"/>
<path d="M455 888 c11 -7 61 -13 110 -15 113 -3 73 14 -50 22 -65 4 -76 3 -60
-7z"/>
<path d="M3262 890 c-88 -13 -73 -23 25 -17 102 6 166 27 78 25 -27 0 -74 -4
-103 -8z"/>
<path d="M325 880 c-3 -5 3 -10 14 -10 12 0 21 5 21 10 0 6 -6 10 -14 10 -8 0
-18 -4 -21 -10z"/>
<path d="M3480 880 c0 -5 7 -10 15 -10 8 0 15 5 15 10 0 6 -7 10 -15 10 -8 0
-15 -4 -15 -10z"/>
<path d="M1375 799 c72 -49 362 -185 373 -174 3 2 -39 25 -94 51 -54 25 -143
68 -197 95 -106 53 -130 61 -82 28z"/>
<path d="M2708 803 c6 -2 18 -2 25 0 6 3 1 5 -13 5 -14 0 -19 -2 -12 -5z"/>
<path d="M2285 684 c-45 -17 -67 -34 -43 -34 21 0 85 27 93 40 8 13 -1 12 -50
-6z"/>
<path d="M1691 596 c31 -18 188 -76 203 -75 16 1 -70 38 -134 59 -30 10 -64
21 -75 24 -11 4 -9 1 6 -8z"/>
</g>
</svg>
